<svg xmlns="http://www.w3.org/2000/svg" width="1439" height="221" fill="none"><path stroke="url(#a)" stroke-linecap="round" stroke-linejoin="round" stroke-miterlimit="10" stroke-opacity=".4" d="M1415.15 1.614 1403.97 0m11.18 1.614h-33.12m33.12 0 11.55 1.667m-11.55-1.667h23.46M1403.97 0h4.07l4.03.004 3.94.01 3.82.02 3.65.03 3.45.048 3.2.066 2.97.083 2.55.116 2.32.134.64.047v1.056M1403.97 0h-32.59m0 0h-32.59m32.59 0 10.65 1.614M1338.79 0h-32.6m32.6 0 10.11 1.614M1306.19 0h-32.59m32.59 0 9.58 1.614M1273.6 0H1241m32.6 0 9.05 1.614M1241 0h-32.59M1241 0l8.52 1.614M1208.41 0h-32.59m32.59 0 7.98 1.614M1175.82 0h-32.6m32.6 0 7.45 1.614M1143.22 0h-32.59m32.59 0 6.92 1.614M1110.63 0h-32.6m32.6 0 6.39 1.614M1078.03 0h-32.59m32.59 0 5.86 1.614M1045.44 0h-32.59m32.59 0 5.32 1.614M1012.85 0h-32.598m32.598 0 1.18.399 1.79.603 1.82.612M980.252 0h-32.594m32.594 0 1.051.399 3.207 1.215M947.658 0h-32.594m32.594 0 3.726 1.614M915.064 0H882.47m32.594 0 1.185.6 1.201.605.403.204.405.205M882.47 0h-32.594m32.594 0 .988.6.332.2.334.202 1.008.612M849.876 0h-32.594m32.594 0 2.129 1.614M817.282 0l.197.199.197.2 1 1.01.203.205M817.282 0h-32.594m0 0h-32.594m32.594 0 1.065 1.614M752.094 0H719.5m32.594 0 .198.6.334 1.014M719.5 0h-32.594M719.5 0v1.614M686.906 0h-32.594m32.594 0-.198.6-.334 1.014M654.312 0h-32.594m32.594 0-1.065 1.614M621.718 0l-.197.199-.197.2-1 1.01-.203.205M621.718 0h-32.594m0 0H556.53m32.594 0-1.859 1.41-.27.204M556.53 0h-32.594m32.594 0-.988.6-.332.2-.668.405-.336.204-.338.205M523.936 0h-32.594m32.594 0-1.185.6-1.201.605-.403.204-.405.205M491.342 0h-32.594m32.594 0-3.726 1.614M458.748 0h-32.594m32.594 0-1.051.399-3.207 1.215M426.154 0H393.56m32.594 0-4.791 1.614M393.56 0h-32.594m32.594 0-5.323 1.614M360.966 0h-32.594m32.594 0-5.855 1.614M328.372 0h-32.594m32.594 0-6.388 1.614M295.778 0h-32.594m32.594 0-6.92 1.614M263.184 0H230.59m32.594 0-7.453 1.614M230.59 0h-32.594m32.594 0-7.985 1.614M197.996 0h-32.594m32.594 0-8.517 1.614M165.402 0h-32.594m32.594 0-9.05 1.614M132.808 0h-32.594m32.594 0-9.582 1.614M100.214 0H67.62m32.594 0L90.1 1.614M67.62 0H35.026M67.62 0 56.974 1.614M35.026 0h-4.067l-4.026.004-3.942.01-3.818.02-3.652.03-3.448.048L8.87.178 5.898.26l-2.55.116L1.025.51.387.557v1.056M35.026 0 23.848 1.614m66.252 0h33.126m-33.126 0H56.974m33.126 0L79.65 3.281m43.576-1.667-9.9 1.667m9.9-1.667h33.126m66.253 0h33.126m-33.126 0h-33.126m33.126 0-2.037.412-6.212 1.255m41.375-1.667-7.699 1.667m7.699-1.667h33.127m66.253 0h33.126m-33.126 0h-33.127m33.127 0-1.494.412-.752.207-3.805 1.048m39.177-1.667-.678.205-.68.207-4.142 1.255m5.5-1.667h33.126m66.253 0-.475.205-3.375 1.462m3.85-1.667h33.126m-33.126 0H454.49m66.252 0-.814.412-.411.207-.411.208-1.664.84m3.3-1.667h33.126m66.253 0h33.126m-33.126 0h-33.126m33.126 0-1.65 1.667m34.776-1.667-.135.205-.136.207-.137.207-.413.626-.278.422m1.099-1.667h33.127m66.252 0h33.127m-33.127 0H719.5m33.126 0 .55 1.667m32.577-1.667.135.205.136.207.137.207.691 1.048m-1.099-1.667h33.126m66.253 0h33.126m-33.126 0h-33.127m33.127 0 .679.412 1.375.833.347.21.349.212m30.376-1.667.815.412.41.207.411.208 1.664.84m-3.3-1.667h33.126m66.256 0h33.12m-33.12 0h-33.13m33.13 0 1.22.412.61.207 3.12 1.048m28.17-1.667.68.205.68.207 4.14 1.255m-5.5-1.667h33.13m66.25 0h33.13m-33.13 0h-33.12m33.12 0 1.77.412.89.207 4.49 1.048m25.98-1.667 7.7 1.667m-7.7-1.667h33.12m66.26 0h33.12m-33.12 0h-33.13m33.13 0 9.35 1.667m23.77-1.667 9.9 1.667m-9.9-1.667h33.13M.271 16.707h.116m33.226 0 12.648-2.13m-12.648 2.13-13.132 2.211m13.132-2.211h38.105m-38.105 0H.387m45.874-2.13H8.859m37.402 0 12.19-2.053m-12.19 2.053h37.402m-74.804 0 12.866-2.053M8.86 14.577H.387m8.472 0L.387 15.928M46.11 8.633h35.442m-35.442 0 11.565-1.845M46.109 8.633H10.67m35.44 0-11.975 1.91m47.417-1.91 10.956-1.845M81.551 8.633l-11.345 1.91m11.345-1.91h35.442m-59.32-1.845h34.834m-34.833 0 11.174-1.783M57.674 6.788H22.84m69.666 0h34.833m-34.833 0 10.585-1.783M.022 50.328h.365m30.382 0 16.309-3.532m-16.309 3.532-17.12 3.707m17.12-3.707h49.196m-49.196 0H.387m46.69-3.532 15.556-3.368m-15.555 3.368h48.03m-48.03 0H.388m15.325-3.368h46.92m-46.92 0 15.912-3.216m-15.912 3.216H.387m15.326 0L.387 46.526m46.446-9.388h44.844m-44.844 0 14.55-2.94m-14.55 2.94H1.989m44.844 0-15.208 3.074m60.052-3.074 13.581-2.94m-13.58 2.94-14.195 3.074m14.194-3.074h44.845m-75.139-2.94h43.875m-43.875 0H17.509m43.874 0 13.934-2.816m29.941 2.816 13.005-2.816m-13.005 2.816h43.874m-47.645-8.105h41.201m-41.201 0 12.304-2.487m-12.304 2.487h-41.2m41.2 0-12.814 2.59m54.015-2.59 11.483-2.487m-11.483 2.487-11.959 2.59m11.959-2.59h41.201m-70.098-2.487h40.38m-40.38 0h-40.38m40.38 0 11.823-2.39m28.557 2.39 11.035-2.39m-11.035 2.39h40.381m-46.625-6.9h38.105m-38.105 0 10.54-2.13m-10.54 2.13h-38.104m38.104 0-10.943 2.212m49.048-2.211 9.837-2.13m-9.837 2.13-10.213 2.211m10.213-2.211h38.105m-65.67-2.13h37.402m-37.402 0h-37.402m37.402 0 10.158-2.053m27.244 2.053 9.481-2.053m-9.481 2.053h37.402m-45.395-5.944h35.441m-35.441 0 9.129-1.845m-9.129 1.845h-35.441m35.441 0-9.454 1.91m44.895-1.91 8.521-1.845m-8.521 1.845-8.824 1.91m8.824-1.91h35.442m-61.754-1.845h34.833m-34.833 0 8.822-1.783m-8.822 1.783h-34.832m69.665 0h34.834m-34.834 0 8.234-1.783M25.592 111.554l22.953-6.959m-22.954 6.959-24.58 7.451m24.58-7.451h69.391m-69.39 0H.386m48.158-6.959 21.484-6.513m-21.484 6.513h67.095m-67.095 0H.387M48.08 86.232h61.038m-61.038 0 19.614-5.406M48.08 86.232l-20.832 5.741m20.832-5.741H.387m108.73 0 17.831-5.406m-17.831 5.406-18.938 5.741m18.938-5.741h61.039M67.693 80.826h59.255m-59.255 0H8.438m59.255 0 18.502-5.099m40.753 5.1 16.82-5.1m-16.82 5.1h59.256M120.215 66.35h54.481m-54.481 0 15.676-4.32m-15.676 4.32h-54.48m54.48 0-16.541 4.559m71.022-4.559 14.25-4.32m-14.25 4.32-15.038 4.559m15.038-4.559h54.48m-93.285-4.32h53.055m-53.055 0H82.835m53.056 0 14.876-4.1m38.179 4.1 13.524-4.1m-13.524 4.1h53.055m-63.647-11.703h49.196m-49.196 0 12.815-3.532m-12.815 3.532h-49.195m49.195 0-13.45 3.707m62.646-3.707 11.649-3.532m-11.649 3.532-12.229 3.707m12.229-3.707h49.195m-85.576-3.532h48.03m-48.03 0h-48.03m48.03 0 12.221-3.368m35.809 3.368 11.11-3.368m-11.11 3.368h48.03m-61.018-9.657h44.844m-44.844 0 10.67-2.941m-10.67 2.94h-44.845m44.845 0-11.153 3.074m55.997-3.074 9.701-2.94m-9.701 2.94-10.138 3.074m10.138-3.074h44.844m-79.018-2.94h43.875m-43.875 0h-43.874m43.874 0 10.218-2.816m33.657 2.816 9.289-2.816m-9.289 2.816h43.874m-58.34-8.105h41.201m-41.201 0 9.023-2.487m-9.023 2.487h-41.2m41.2 0-9.396 2.59m50.597-2.59 1.044-.317 7.159-2.17m-8.203 2.487-8.542 2.59m8.542-2.59h41.202m-73.38-2.487h40.381m-40.381 0h-40.38m40.38 0 8.671-2.39m31.71 2.39 7.882-2.39m-7.882 2.39h40.381m-55.729-6.9h38.106m-38.106 0 7.73-2.13m-7.73 2.13h-38.104m38.104 0-8.024 2.212m46.13-2.211 7.026-2.13m-7.026 2.13-2.703.82-4.593 1.391m7.296-2.211h38.105m-68.481-2.13h37.402m-37.402 0h-37.402m37.402 0 7.449-2.053m29.953 2.053 6.772-2.053m-6.772 2.053h37.402m-53.238-5.944h35.442m-35.442 0 6.695-1.845m-6.695 1.845h-35.441m35.441 0-6.933 1.91m42.375-1.91 4.585-1.39.752-.228.75-.227m-6.087 1.845-6.303 1.91m6.303-1.91h35.442m-64.189-1.845h34.834m-34.834 0 6.469-1.783m-6.469 1.783h-34.833m69.667 0h34.833m-34.833 0 5.88-1.783M50.733 190.822h95.538m-95.538 0 30.083-13.029m-30.083 13.029-33.057 14.316m33.057-14.316H.387m145.884 0 25.786-13.029m-25.786 13.029-28.334 14.316m28.334-14.316h95.538M80.816 177.793h91.241m-91.241 0 27.493-11.907m-27.493 11.907H.386m171.67 0 23.565-11.907m-23.565 11.907h91.24m-106.54-32.889h80.392m-80.392 0 21.453-9.291m-21.453 9.291H76.365m80.392 0-23.224 10.058m103.616-10.058 18.388-9.291m-18.388 9.291-19.907 10.058m19.907-10.058h80.392m-139.331-9.291h77.327m-77.327 0h-77.327m77.327 0 19.879-8.609m57.448 8.609 17.039-8.609m-17.039 8.609h77.328m-99.101-24.059h69.391m-69.391 0 16.068-6.959m-16.068 6.959h-69.391m69.391 0-17.206 7.451m86.597-7.451 13.772-6.959m-13.772 6.959-14.748 7.451m14.748-7.451h69.39m-122.713-6.959h67.095m-67.095 0h-67.096m67.096 0 15.038-6.513m52.057 6.513 12.89-6.513m-12.89 6.513h67.096m-91.791-18.363h61.038m-61.038 0 12.482-5.406m-12.482 5.406h-61.038m61.038 0-13.257 5.741m74.295-5.741 10.699-5.406m-10.699 5.406-11.363 5.741m11.363-5.741h61.039m-109.595-5.406h59.255m-59.255 0h-59.255m59.255 0 11.774-5.099m47.481 5.1 10.092-5.1m-10.092 5.1h59.255M338.137 66.35h54.481m-54.481 0 9.975-4.32m-9.975 4.32h-54.481m54.481 0-10.526 4.559m65.007-4.559 8.55-4.32m-8.55 4.32-9.023 4.559m9.023-4.559h54.48m-98.986-4.32h53.056m-53.056 0h-53.056m53.056 0 9.467-4.1m43.589 4.1 8.114-4.1m-8.114 4.1h53.055m-79.088-11.703h49.195m-49.195 0 8.154-3.532m-8.154 3.532h-49.196m49.196 0-8.56 3.707m57.755-3.707 6.989-3.532m-6.989 3.532-7.337 3.707m7.337-3.707h49.195m-90.236-3.532h48.03m-48.03 0h-48.03m48.03 0 7.777-3.368m40.253 3.368 6.666-3.368m-6.666 3.368h48.03m-73.76-9.657h44.845m-44.845 0 6.79-2.941m-6.79 2.94h-44.845m44.845 0-7.097 3.074m51.942-3.074 5.819-2.94m-5.819 2.94-6.084 3.074m6.084-3.074h44.844m-82.899-2.94h43.874m-43.874 0h-43.875m43.875 0 6.503-2.816m37.371 2.816 5.574-2.816m-5.574 2.816h43.875m-69.034-8.105h41.201m-41.201 0 5.742-2.487m-5.742 2.487h-41.201m41.201 0-5.98 2.59m47.181-2.59-.63.317-4.496 2.272m5.126-2.59 4.921-2.486m-4.921 2.487h41.201m-76.66-2.487h40.38m-40.38 0h-40.381m40.381 0 5.517-2.39m34.863 2.39 4.73-2.39m-4.73 2.39h40.381m-64.831-6.9h38.105m-38.105 0 4.919-2.13m-4.919 2.13h-38.105m38.105 0-5.106 2.212m43.211-2.211 4.216-2.13m-4.216 2.13-1.622.82-1.094.552-1.661.84m4.377-2.212h38.105m-71.291-2.13h37.402m-37.402 0h-37.403m37.403 0 4.74-2.053m32.662 2.053 1.541-.779 1.016-.513 1.506-.761m-4.063 2.053h37.402m-61.08-5.944h35.441m-35.441 0 3.209-1.39 1.051-.455m-4.26 1.845h-35.442m35.442 0-3.852 1.668-.56.243m39.853-1.911 2.751-1.39.452-.228.45-.227m-3.653 1.845-1.874.947-1.907.964m3.781-1.911h35.442m-66.623-1.845h34.834m-34.834 0 4.117-1.783m-4.117 1.783h-34.833m69.667 0h34.832m-34.832 0 3.528-1.783m-81.145 185.817h95.538m-95.538 0 12.892-13.029m-12.892 13.029h-95.538m95.538 0-14.168 14.316m109.706-14.316 8.595-13.029m-8.595 13.029-9.445 14.316m9.445-14.316h95.538m-178.184-13.029h91.241m-91.241 0h-91.24m91.24 0 11.783-11.907m79.458 11.907 7.855-11.907m-7.855 11.907h91.241m-149.935-32.889h80.391m-80.391 0 9.194-9.291m-9.194 9.291h-80.393m80.393 0-9.954 10.058m90.345-10.058 6.13-9.291m-6.13 9.291-6.635 10.058m6.635-10.058h80.392m-151.589-9.291h77.327m-77.327 0h-77.327m77.327 0 8.519-8.609m68.808 8.609 5.679-8.609m-5.679 8.609h77.327m-130.846-24.059h69.391m-69.391 0 6.887-6.959m-6.887 6.959h-69.39m69.39 0-7.374 7.451m76.765-7.451 4.591-6.959m-4.591 6.959-4.915 7.451m4.915-7.451h69.391m-131.895-6.959h67.095m-67.095 0h-67.096m67.096 0 6.445-6.513m60.65 6.513 4.297-6.513m-4.297 6.513h67.096m-116.02-18.363h61.038m-61.038 0 5.35-5.406m-5.35 5.406h-61.038m61.038 0-5.681 5.741m66.719-5.741 3.567-5.406m-3.567 5.406-3.787 5.741m3.787-5.741h61.039m-116.727-5.406h59.255m-59.255 0H482.48m59.255 0 5.045-5.099m54.21 5.1 3.364-5.1m-3.364 5.1h59.255M556.058 66.35h54.481m-54.481 0 4.275-4.32m-4.275 4.32h-54.48m54.48 0-4.51 4.559m58.991-4.559 2.85-4.32m-2.85 4.32-3.007 4.559m3.007-4.559h54.481m-104.687-4.32h53.056m-53.056 0h-53.054m53.054 0 4.058-4.1m48.998 4.1 2.705-4.1m-2.705 4.1h53.056m-94.53-11.703h49.195m-49.195 0 3.494-3.532m-3.494 3.532H522.72m49.195 0-3.668 3.707m52.863-3.707 2.33-3.532m-2.33 3.532-2.446 3.707m2.446-3.707h49.195m-94.896-3.532h48.031m-48.031 0h-48.03m48.03 0 1.269-1.281 2.065-2.087m44.697 3.368 2.222-3.368m-2.222 3.368h48.03m-86.503-9.657h44.844m-44.844 0 2.91-2.941m-2.91 2.94h-44.845m44.845 0-2.268 2.293-.774.781m47.886-3.074.738-1.117 1.202-1.823m-1.94 2.94-2.028 3.074m2.028-3.074h44.845m-86.779-2.94.354-.359 2.432-2.457m-2.786 2.816h43.874m-43.874 0h-43.875m87.749 0 .706-1.07.233-.353.232-.351.687-1.042m-1.858 2.816h43.875m-79.729-8.105h41.201m-41.201 0 1.243-1.256.307-.31.305-.309.304-.306.302-.306m-2.461 2.487h-41.2m41.2 0-2.562 2.59m43.763-2.59 1.237-1.875.203-.306.2-.306m-1.64 2.487-1.708 2.59m1.708-2.59h41.201m-79.941-2.487h40.38m-40.38 0h-40.38m40.38 0 1.489-1.505.293-.296.583-.588m38.015 2.39.993-1.505.196-.297.194-.295.194-.294m-1.577 2.39h40.382m-73.934-6.9h38.105m-38.105 0 2.108-2.13m-2.108 2.13H567.08m38.106 0-.54.546-.819.827-.83.84m40.294-2.212-.18.272-1.095 1.658-.185.281m1.46-2.211 1.405-2.13m-1.405 2.13h38.104m-74.101-2.13h37.402m-37.402 0h-37.402m37.402 0 2.031-2.053m35.371 2.053.514-.779.169-.257.169-.256.502-.761m-1.354 2.053h37.402m-68.923-5.944h35.442m-35.442 0 1.376-1.39.45-.455m-1.826 1.845h-35.441m35.441 0-.701.708-.236.239-.237.24-.717.724m37.333-1.911.155-.234.306-.466.305-.46.451-.685m-1.217 1.845-.625.947-.158.24-.318.481-.159.243m1.26-1.911h35.441m-69.057-1.845h34.833m-34.833 0 1.547-1.564.218-.22m-1.765 1.784h-34.833m69.666 0 .15-.227.148-.225.148-.224.147-.223.438-.665.146-.22m-1.177 1.784h34.833m130.371 184.034h95.539m-95.539 0-4.298-13.029m4.298 13.029H719.5m95.538 0 4.723 14.316m90.816-14.316-8.595-13.029m8.595 13.029 9.444 14.316m-9.444-14.316h95.533m-195.37-13.029h91.242m-91.242 0H719.5m91.24 0-3.927-11.907m95.169 11.907-7.856-11.907m7.856 11.907h91.24m-193.33-32.889h80.392m-80.392 0-3.065-9.291m3.065 9.291H719.5m80.392 0 3.318 10.058m77.074-10.058-6.13-9.291m6.13 9.291 6.635 10.058m-6.635-10.058h80.391m-163.848-9.291h77.327m-77.327 0H719.5m77.327 0-2.84-8.609m80.167 8.609-5.679-8.609m5.679 8.609h77.327m-162.59-24.059h69.391m-69.391 0-2.295-6.959m2.295 6.959H719.5m69.391 0 2.458 7.451m66.933-7.451-4.591-6.959m4.591 6.959 4.915 7.451m-4.915-7.451h69.391m-141.077-6.959h67.095m-67.095 0H719.5m67.096 0-2.149-6.513m69.244 6.513-4.297-6.513m4.297 6.513h67.095M780.538 86.232h61.039m-61.039 0-1.783-5.406m1.783 5.406H719.5m61.038 0 1.894 5.741m59.145-5.741-3.566-5.406m3.566 5.406 3.787 5.741m-3.787-5.741h61.038m-123.86-5.406h59.256m-59.256 0H719.5m59.255 0-1.682-5.099m60.938 5.1-3.365-5.1m3.365 5.1h59.254M773.98 66.35h54.481m-54.481 0-1.424-4.32m1.424 4.32H719.5m54.48 0 1.504 4.559m52.977-4.559-2.85-4.32m2.85 4.32 3.007 4.559m-3.007-4.559h54.481m-110.386-4.32h53.055m-53.055 0H719.5m53.056 0-1.353-4.1m54.408 4.1-2.705-4.1m2.705 4.1h53.056M768.695 50.328h49.195m-49.195 0-1.165-3.532m1.165 3.532H719.5m49.195 0 1.223 3.707m47.972-3.707-2.33-3.532m2.33 3.532 2.446 3.707m-2.446-3.707h49.195m-99.555-3.532h48.03m-48.03 0H719.5m48.03 0-1.111-3.368m49.141 3.368-2.222-3.368m2.222 3.368h48.031m-99.247-9.657h44.845m-44.845 0-.97-2.941m.97 2.94H719.5m44.844 0 1.014 3.074m43.831-3.074-1.703-2.58-.237-.36m1.94 2.94 2.028 3.074m-2.028-3.074h44.844m-90.659-2.94-.117-.359-.812-2.457m.929 2.816h43.875m-43.875 0H719.5m87.749 0-.706-1.07-.233-.353-.232-.351-.687-1.042m1.858 2.816h43.874m-90.422-8.105h41.201m-41.201 0-.82-2.487m.82 2.487H719.5m41.201 0 .316.958.107.323.106.325.216.654.109.33m40.347-2.59-1.237-1.875-.404-.612m1.641 2.487 1.708 2.59m-1.708-2.59h41.201m-83.222-2.487h40.38m-40.38 0H719.5m40.381 0-.789-2.39m41.169 2.39-.992-1.505-.196-.296-.194-.295-.194-.294m1.576 2.39h40.381m-83.037-6.9h38.105m-38.105 0-.703-2.13m.703 2.13H719.5m38.105 0 .729 2.212m37.376-2.211.179.272 1.095 1.658.185.281m-1.459-2.211-1.406-2.13m1.406 2.13h38.104m-76.912-2.13h37.402m-37.402 0H719.5m37.402 0-.677-2.053m38.079 2.053-.514-.779-.169-.257-.169-.256-.502-.761m1.354 2.053h37.402m-76.764-5.944h35.442m-35.442 0-.609-1.845m.609 1.845H719.5m35.442 0 .63 1.91m34.812-1.91-.155-.234-.308-.466-.152-.23-.303-.46-.15-.228-.15-.227m1.218 1.845.624.947.158.24.318.481.16.243m-1.26-1.911h35.441m-71.492-1.845-.074-.227-.075-.225-.074-.224-.365-1.107m.588 1.783h34.833m-34.833 0H719.5m69.666 0h34.833m-34.833 0-.298-.452-.148-.224-.147-.223-.438-.665-.146-.22m409.201 185.818h95.54m-95.54 0-21.49-13.029m21.49 13.029h-95.54m95.54 0 23.61 14.316m71.93-14.316-25.79-13.029m25.79 13.029 28.33 14.316m-28.33-14.316h95.54m-212.57-13.029h91.24m-91.24 0h-91.24m91.24 0-19.63-11.907m110.87 11.907-23.56-11.907m23.56 11.907h91.24m-236.72-32.889h80.39m-80.39 0-15.32-9.291m15.32 9.291h-80.39m80.39 0 16.59 10.058m63.8-10.058-18.39-9.291m18.39 9.291 19.91 10.058m-19.91-10.058h80.39m-176.1-9.291h77.32m-77.32 0h-77.33m77.33 0-14.2-8.609m91.52 8.609-17.04-8.609m17.04 8.609h77.33m-194.34-24.059h69.4m-69.4 0-11.47-6.959m11.47 6.959h-69.387m69.387 0 12.29 7.451m57.11-7.451-13.78-6.959m13.78 6.959 14.74 7.451m-14.74-7.451h69.39m-150.26-6.959h67.09m-67.09 0h-67.098m67.098 0-10.74-6.513m77.83 6.513-12.89-6.513m12.89 6.513h67.1m-164.48-18.363h61.04m-61.04 0-8.91-5.406m8.91 5.406h-61.037m61.037 0 9.47 5.741m51.57-5.741-10.7-5.406m10.7 5.406 11.36 5.741m-11.36-5.741h61.04m-130.99-5.406h59.25m-59.25 0h-59.26m59.26 0-8.41-5.099m67.66 5.1-10.09-5.1m10.09 5.1h59.26M991.902 66.35h54.478m-54.478 0-7.125-4.32m7.125 4.32h-54.48m54.48 0 7.519 4.559m46.959-4.559-8.55-4.32m8.55 4.32 9.03 4.559m-9.03-4.559h54.48m-116.083-4.32h53.053m-53.053 0h-53.056m53.056 0-6.762-4.1m59.815 4.1-8.11-4.1m8.11 4.1h53.06M965.476 50.328h49.194m-49.194 0-5.825-3.532m5.825 3.532H916.28m49.196 0 6.114 3.707m43.08-3.707-6.99-3.532m6.99 3.532 7.34 3.707m-7.34-3.707h49.2m-104.219-3.532h48.029m-48.029 0h-48.03m48.03 0-5.555-3.368m53.584 3.368-6.67-3.368m6.67 3.368h48.03M943.722 37.14l.621.376.626.38 3.822 2.317m-5.069-3.074h44.845m-44.845 0-4.85-2.94m4.85 2.94h-44.844m89.689 0-5.82-2.94m5.82 2.94 6.083 3.074m-6.083-3.074h44.843m-94.538-2.94h43.875m-43.875 0h-43.874m43.874 0-4.644-2.816m48.519 2.816-5.574-2.816m5.574 2.816h43.873m-101.116-8.105h41.202m-41.202 0-4.101-2.487m4.101 2.487h-41.201m41.201 0 4.271 2.59m36.931-2.59-3.1-1.566-1.822-.92m4.922 2.486 5.125 2.59m-5.125-2.59h41.204m-86.507-2.487h40.381m-40.381 0h-40.381m40.381 0-3.456-2.096-.485-.294m44.322 2.39-4.73-2.39m4.73 2.39h40.376m-92.136-6.9h38.105m-38.105 0-.89-.54-2.623-1.59m3.513 2.13H871.92m38.104 0 .899.546 1.824 1.106.925.56m34.457-2.211-4.216-2.13m4.216 2.13 1.622.82 1.094.552 1.661.84m-4.377-2.212h38.105m-79.723-2.13h37.402m-37.402 0h-37.403m37.403 0-2.551-1.547-.835-.506m40.788 2.053-1.541-.779-1.016-.513-1.506-.761m4.063 2.053h37.402m-84.607-5.944h35.442m-35.442 0-1.915-1.16-1.128-.685m3.043 1.845h-35.442m35.442 0 3.152 1.91m32.29-1.91-2.751-1.39-.451-.228-.451-.227m3.653 1.845 1.874.947 1.907.964m-3.781-1.911h35.441m-73.926-1.845h34.832m-34.832 0-1.483-.9-.732-.443-.364-.22-.361-.22m2.94 1.783h-34.833m69.665 0h34.834m-34.834 0-3.528-1.783m490.471 130.608h-77.32m77.32 0-25.55-8.609m25.55 8.609h23.17m-23.17 0 23.17 7.804m-94.59-31.863h69.39m-69.39 0-20.66-6.959m20.66 6.959h-69.39m69.39 0 22.12 7.451m47.27-7.451-22.95-6.959m22.95 6.959 24.58 7.451m-24.58-7.451h25.2m-115.25-6.959h67.1m-67.1 0h-67.1m67.1 0-19.34-6.513m86.44 6.513-21.49-6.513m21.49 6.513h48.15m-169.77-18.363h61.04m-61.04 0-16.04-5.406m16.04 5.406h-61.03m61.03 0 17.05 5.741m43.99-5.741-17.83-5.406m17.83 5.406 18.94 5.741m-18.94-5.741h61.04m-138.12-5.406h59.25m-59.25 0h-59.26m59.26 0-15.14-5.099m74.39 5.1-16.82-5.1m16.82 5.1h59.26M1209.82 66.35h54.48m-54.48 0L1197 62.03m12.82 4.32h-54.48m54.48 0 13.54 4.559m40.94-4.559-14.25-4.32m14.25 4.32 15.04 4.559m-15.04-4.559h54.49M1197 62.031h53.05m-53.05 0h-53.06m53.06 0-12.17-4.1m65.22 4.1-13.52-4.1m13.52 4.1h53.06m-140.85-11.703h49.19m-49.19 0-10.49-3.532m10.49 3.532h-49.2m49.2 0 11 3.707m38.19-3.707-11.65-3.532m11.65 3.532 12.23 3.707m-12.23-3.707h49.2m-108.88-3.532h48.03m-48.03 0h-48.03m48.03 0-10-3.368m58.03 3.368-11.11-3.368m11.11 3.368h48.03M1123.1 37.14h44.84m-44.84 0-8.73-2.941m8.73 2.94h-44.84m44.84 0 9.13 3.074m35.71-3.074-9.7-2.94m9.7 2.94 10.14 3.074m-10.14-3.074h44.85m-98.42-2.94h43.87m-43.87 0h-43.87m43.87 0-8.36-2.816m52.23 2.816-9.29-2.816m9.29 2.816h43.88m-111.81-8.105h41.2m-41.2 0-7.38-2.487m7.38 2.487h-41.2m41.2 0 7.69 2.59m33.51-2.59-8.2-2.487m8.2 2.487 8.54 2.59m-8.54-2.59h41.2m-89.78-2.487h40.38m-40.38 0h-40.39m40.39 0-7.1-2.39m47.48 2.39-7.89-2.39m7.89 2.39h40.38m-101.25-6.9h38.11m-38.11 0-6.32-2.13m6.32 2.13h-38.1m38.1 0 1.62.546.82.274 4.13 1.392m31.54-2.211-7.03-2.13m7.03 2.13 7.29 2.211m-7.29-2.211h38.1m-82.53-2.13h37.4m-37.4 0h-37.4m37.4 0-6.09-2.053m43.49 2.053-6.77-2.053m6.77 2.053h37.4m-92.45-5.944h35.45m-35.45 0L1033 6.788m5.47 1.845h-35.44m35.44 0 5.68 1.91m29.77-1.91-4.59-1.39-.75-.228-.75-.227m6.09 1.845 6.3 1.91m-6.3-1.91h35.44M1033 6.788h34.83m-34.83 0-4.64-1.564-.66-.22m5.3 1.784h-34.836m69.666 0h34.83m-34.83 0-5.88-1.783m365.8 61.346-18.53-4.32m18.53 4.32h-54.48m54.48 0 10.86 2.534m-10.86-2.534h10.86m-29.39-4.32h-53.06m53.06 0-17.58-4.1m17.58 4.1h29.39m-79.57-11.703h49.19m-49.19 0-15.15-3.532m15.15 3.532h-49.2m49.2 0 15.89 3.707m33.3-3.707-16.31-3.532m16.31 3.532 17.12 3.707m-17.12-3.707h30.38m-94.72-3.532h48.03m-48.03 0h-48.03m48.03 0-14.44-3.368m62.47 3.368-15.55-3.368m15.55 3.368h46.69m-136.13-9.657h44.84m-44.84 0-12.61-2.941m12.61 2.94h-44.85m44.85 0 13.18 3.074m31.66-3.074-13.58-2.94m13.58 2.94 14.2 3.074m-14.2-3.074h44.85m-102.3-2.94h43.87m-43.87 0h-43.88m43.88 0-12.08-2.816m55.95 2.816-13-2.816m13 2.816h43.88m-122.51-8.105h41.2m-41.2 0-10.66-2.487m10.66 2.487h-41.2m41.2 0 11.11 2.59m30.09-2.59-11.48-2.487m11.48 2.487 11.96 2.59m-11.96-2.59h41.2m-93.06-2.487h40.38m-40.38 0h-40.38m40.38 0-10.25-2.39m50.63 2.39-11.04-2.39m11.04 2.39h40.38m-110.35-6.9h38.11m-38.11 0-9.13-2.13m9.13 2.13h-38.1m38.1 0 9.49 2.212m28.62-2.211-9.84-2.13m9.84 2.13 10.21 2.211m-10.21-2.211h38.1m-85.34-2.13h37.4m-37.4 0h-37.4m37.4 0-8.8-2.053m46.2 2.053-9.48-2.053m9.48 2.053h37.4m-100.29-5.944h35.44m-35.44 0-7.91-1.845m7.91 1.845h-35.44m35.44 0 8.19 1.91m27.25-1.91-8.52-1.845m8.52 1.845 8.83 1.91m-8.83-1.91h35.44m-78.79-1.845h34.83m-34.83 0-7.65-1.783m7.65 1.783h-34.83m69.66 0h34.83m-34.83 0-8.23-1.783m220.98 21.088-13.94-2.487m13.94 2.487h-41.2m41.2 0 14.53 2.59m-14.53-2.59h18.7m-32.64-2.487h-40.38m40.38 0-13.4-2.39m13.4 2.39h32.64m-71.33-6.9h38.11m-38.11 0-11.94-2.13m11.94 2.13h-38.1m38.1 0 12.4 2.212m25.71-2.211-12.65-2.13m12.65 2.13 13.13 2.211m-13.13-2.211h33.22m-83.27-2.13h37.4m-37.4 0h-37.4m37.4 0-11.52-2.053m48.92 2.053-12.19-2.053m12.19 2.053h37.4m-108.13-5.944h35.44m-35.44 0-10.35-1.845m10.35 1.845h-35.44m35.44 0 10.71 1.91m24.73-1.91-10.96-1.845m10.96 1.845 11.34 1.91m-11.34-1.91h35.44m-81.23-1.845h34.83m-34.83 0-10-1.783m10 1.783h-34.83m69.66 0h34.84m-34.84 0-10.58-1.783m32.88 5.539 11.76 1.98m-11.76-1.98h36.08m-36.08 0h-36.07m60.17-1.911-11.56-1.845m11.56 1.845 11.98 1.91m-11.98-1.91h35.44m-47-1.845h34.83m-34.83 0-11.18-1.783m-34.24 0h-34.25m34.25 0h34.24m-34.24 0-10.24-1.724m79.2 7.263 12.41 1.98m-12.41-1.98h33.74m-10.28-1.911-12.17-1.845m12.17 1.845 10.28 1.558m-10.28-1.558h10.28m-22.45-1.845-11.76-1.783m11.76 1.783h22.45m-68.46-1.783h34.25m-34.25 0-10.8-1.724m45.05 1.724-11.37-1.724m11.37 1.724h34.21m-58.06 7.519h36.73m-36.73 0h-36.73m86.32 2.053-12.86-2.053m12.86 2.053 8.47 1.351m-8.47-1.351h8.47m-21.33-2.053h21.33m-94.79 0h-36.72m36.72 0-11.1-1.98m0 0h-36.07m121.87 8.374 13.64 2.299m-13.64-2.299h-38.84m38.84 0h20.09m.12-2.211h-.12m-6.45 4.51h-39.59m39.59 0 6.45 1.086m-6.45-1.087h6.45m-46.04 0h-39.59m39.59 0-12.89-2.298m0 0h-38.83m-116.34-8.374 9.14 1.98m-9.14-1.98h36.07m-36.07 0h-36.08m62.69-1.911-9.13-1.845m9.13 1.845 9.46 1.91m-9.46-1.91h35.45m-44.58-1.845h34.84m-34.84 0-8.82-1.783m-34.24 0h34.24m-34.24 0-7.96-1.724m7.96 1.724h-34.25m95.9 5.539 9.79 1.98m-9.79-1.98h36.07m-10.08-1.911-9.74-1.845m9.74 1.845 10.08 1.91m-19.82-3.755-9.41-1.783m-34.25 0h34.25m-34.25 0-8.53-1.724m72.01 7.263 10.45 1.98m-5.44-7.52h-34.24m34.24 0L1292 3.282m-24.58 1.724-9.1-1.724m-24.67 9.243h36.72m-36.72 0h-36.72m83.6 2.053-10.16-2.053m10.16 2.053 10.54 2.13m-10.54-2.13h37.41m-47.57-2.053h36.73m-110.17 0h-36.73m36.73 0-8.5-1.98m118.67 1.98 10.84 2.053m-129.51-4.033h-36.07m138.71 6.163 10.95 2.211m-10.95-2.211h38.11m-11.24-2.13 11.24 2.13m0 0 11.67 2.211m-77.67 0 10.61 2.299m-10.61-2.299h38.84m-38.84 0h-38.83m77.67 0 11.37 2.299m-11.37-2.299h38.83m0 0 12.13 2.299m-79.19 0h39.6m-39.6 0h-39.59m91.01 2.39-11.82-2.39m11.82 2.39 12.3 2.486m-12.3-2.487h40.38m-52.2-2.39h39.59m-118.78 0h-39.59m39.59 0-9.85-2.298m128.63 2.299 12.61 2.39m-141.24-4.689h-38.84m152 7.175 12.82 2.59m-12.82-2.59h41.2m-13.12-2.487 13.12 2.487m0 0 13.67 2.59m-84.11 0 12.47 2.699m-12.47-2.7h42.06m-42.06 0h-42.05m84.11 0 13.35 2.7m-13.35-2.7h42.05m0 0 14.25 2.7m-14.25-2.7h42.06m0 0h4.17m-4.17 0 4.17.745m-117.87 1.955h42.94m-42.94 0h-42.95m99.83 2.816-13.94-2.816m13.94 2.816 14.55 2.94m-14.55-2.94h43.87m-57.81-2.816h42.95m-128.84 0h-42.94m42.94 0-11.57-2.7m140.41 2.7 14.86 2.816m-14.86-2.816h31.98m-172.39-2.7h-42.06m168.01 8.457 15.2 3.073m-15.2-3.074h44.84m-15.52-2.94 15.52 2.94m-15.52-2.94h17.12m.23-2.816h-.23m-1.6 5.756 1.6.304m-1.6-.303h1.6m-77.09 3.073 14.85 3.216m-14.85-3.216h45.85m-45.85 0h-45.86m91.71 0 15.92 3.216m-15.92-3.216h31.24m.39-2.697-.39-.073m-62.24 5.986h46.92m-46.92 0h-46.92m93.84 0h15.32m-15.32 0 15.32 3.098m-109.16-3.098h-46.92m46.92 0-13.79-3.216m0 0h-45.86m155.55 13.823h-50.42m50.42 0 13.26 2.872m-13.26-2.872h13.26m.37-3.707h-.37m-63.68 3.707h-50.42m50.42 0 16.71 3.896m47.12-.993-.15-.031m-358.39-46.363 6.53 1.98m-6.53-1.98h36.07m-36.07 0h-36.07m65.21-1.911-6.7-1.845m6.7 1.845 6.93 1.91m-6.93-1.91h35.44m-42.14-1.845h34.84m-34.84 0-6.47-1.783m-34.24 0h34.24m-34.24 0-2.16-.653-3.53-1.07m5.69 1.723h-34.25m88.59 5.539 7.19 1.98m-7.19-1.98h36.07m-7.56-1.911-7.3-1.845m7.3 1.845 7.56 1.91m-14.86-3.755-7.06-1.783m-34.25 0h34.25m-34.25 0-6.25-1.724m62.42 7.263 7.84 1.98m4.48-7.52-7.39-1.723m7.39 1.724h-34.24m0 0-.87-.219-1.72-.434-4.23-1.07m-36.87 9.242h36.73m-36.73 0h-36.72m80.89 2.053-7.44-2.053m7.44 2.053 7.73 2.13m-7.73-2.13h37.41m-44.85-2.053h36.72m-110.17 0h-36.73m36.73 0-5.88-1.98m116.05 1.98 8.13 2.053m-124.18-4.033h-36.08m130.58 6.163 8.03 2.211m-8.03-2.211h38.11m-8.43-2.13 1.03.261 7.4 1.869m0 0 8.75 2.211m-77.67 0 .94.283 6.64 2.015m-7.58-2.298h38.84m-38.84 0h-38.83m77.67 0 8.34 2.299m-8.34-2.299h38.83m0 0 9.1 2.299m-79.19 0h39.6m-39.6 0h-39.59m87.86 2.39-8.67-2.39m8.67 2.39 9.02 2.486m-9.02-2.487h40.38m-49.05-2.39h39.59m-118.78 0h-39.59m39.59 0-6.82-2.298m125.6 2.299 9.46 2.39m-135.06-4.689h-38.83m142.53 7.175 9.4 2.59m-9.4-2.59h41.2m-9.84-2.487 9.84 2.487m0 0 10.25 2.59m-84.11 0 8.9 2.699m-8.9-2.7h42.06m-42.06 0H1098m84.11 0 9.79 2.7m-9.79-2.7h42.05m0 0 10.69 2.7m-85.9 0h42.95m-42.95 0h-42.94m96.11 2.816-10.22-2.816m10.22 2.816 10.67 2.94m-10.67-2.94h43.87m-54.09-2.816h42.95m-128.84 0h-42.95m42.95 0-8.01-2.7m136.85 2.7 11.14 2.816M1098 28.682h-42.06m156.85 8.457 11.15 3.073m-11.15-3.074h44.84m-11.64-2.94 11.64 2.94m0 0 12.17 3.074m-91.72 0 10.61 3.216m-10.61-3.216h45.86m-45.86 0h-45.85m91.71 0 11.67 3.216m-11.67-3.216h45.86m0 0 12.73 3.216m-93.84 0h46.92m-46.92 0h-46.92m106.06 3.368-12.22-3.368m12.22 3.368 12.82 3.532m-12.82-3.532h48.03m-60.25-3.368h46.92m-140.76 0h-46.92m46.92 0-9.54-3.216m150.3 3.216 13.33 3.368m-163.63-6.584h-45.86m174.28 10.116 13.45 3.707m-13.45-3.707h49.19m-13.98-3.532 13.98 3.532m0 0 14.67 3.707m-100.83 0 12.85 3.896m-12.85-3.896h50.42m-50.42 0h-50.42m100.84 0 14.13 3.896m-14.13-3.896h50.41m0 0 15.43 3.896m-103.41 0h51.7m-51.7 0h-51.7m118.28 4.1-14.88-4.1m14.88 4.1 15.68 4.32m-15.68-4.32h53.05m-67.93-4.1h51.71m-155.11 0h-51.71m51.71 0-11.57-3.896m166.68 3.896 16.22 4.1m-16.22-4.1h51.7m-218.38-3.896h-50.42m195.95 12.316 16.54 4.559m-16.54-4.559h54.48m-17.11-4.32 17.11 4.32m18.37-8.42h46.97m-65.34 8.42 18.04 4.559m-111.97 0 15.89 4.817m-15.89-4.817h55.99m-55.99 0h-55.98m111.97 0 17.48 4.817m-17.48-4.817h55.98m0 0 19.07 4.817m-19.07-4.817h47.3m-143.38 4.817h57.58m-57.58 0h-57.57m133.65 5.1-18.5-5.1m18.5 5.1 19.61 5.405m-19.61-5.406h59.25m-77.75-5.099h57.57m-172.72 0h-57.57m57.57 0-14.3-4.817m187.02 4.817 20.18 5.1m-20.18-5.1h28.23m-215.25-4.817h-55.99m223.55 15.322 20.83 5.741m-20.83-5.741h47.69m-8.05-5.406h8.05m-8.05 0 8.05 2.034m-89.79 9.113 20.15 6.109m-20.15-6.109h62.93m-62.93 0h-62.93m125.86 0 22.17 6.109m-22.17-6.109h26.86m-69.64 6.109h64.95m-64.95 0h-64.95m129.9 0 4.69 1.294m-4.69-1.294h4.69m-134.59 0h-64.94m64.94 0-18.13-6.109m0 0h-62.93m215.03 27.032h-71.85m71.85 0h.62m-.62 0 .62.189m-72.47-.189h-71.85m71.85 0 23.75 7.999M935.931 10.544l1.453.734.489.247 1.977.999m-3.919-1.98h36.072m-36.072 0H899.86m67.731-1.911-3.209-1.39-1.051-.455m4.26 1.845 3.852 1.668.56.243m-4.412-1.911h35.439m-39.699-1.845h34.833m-34.833 0-4.117-1.783m-34.245 0h34.245m-34.245 0-1.293-.653-2.118-1.07m3.411 1.723h-34.244m81.278 5.539 1.128.488 3.444 1.492m-4.572-1.98h36.067m-5.04-1.911-4.866-1.845m4.866 1.845 5.04 1.91m-9.906-3.755-3.544-1.343-1.161-.44m-34.245 0h34.245m-34.245 0-3.98-1.724m52.836 7.263 5.23 1.98m14.4-7.52-.65-.218-4.46-1.505m5.11 1.724h-34.241m0 0-1.724-.653-2.825-1.07m-49.06 9.242h36.725m-36.725 0h-36.725m78.19 2.053-4.74-2.053m4.74 2.053 4.919 2.13m-4.919-2.13h37.405m-42.145-2.053h36.725m-110.175 0H866.4m36.725 0-3.265-1.98m113.44 1.98 5.42 2.053m-118.86-4.033h-36.072m122.446 6.163 3.168 1.372.644.279 1.294.56m-5.106-2.211h38.106m-5.62-2.13 5.62 2.13m0 0 5.84 2.211m-77.674 0 4.548 2.299m-4.548-2.299h38.834m-38.834 0h-38.834m77.668 0 5.307 2.299m-5.307-2.299h38.84m0 0 6.06 2.299m-79.186 0h39.593m-39.593 0h-39.592m84.698 2.39-3.47-1.505-.684-.297-1.359-.588m5.513 2.39 5.75 2.486m-5.75-2.487h40.38m-45.893-2.39h39.593m-118.778 0H877.87m39.592 0-3.79-2.298m122.568 2.299 6.3 2.39m-128.868-4.689h-38.835m133.073 7.175 5.98 2.59m-5.98-2.59h41.2m-6.57-2.487 6.57 2.487m0 0 6.83 2.59m-84.109 0 2.643 1.335.669.338 2.03 1.026m-5.342-2.7h42.059m-42.059 0h-42.056m84.115 0 6.23 2.7m-6.23-2.7h42.05m0 0 7.12 2.7m-85.887 0h42.947m-42.947 0h-42.945m92.392 2.816-6.5-2.816m6.5 2.816 6.79 2.94m-6.79-2.94h43.88m-50.38-2.816h42.94m-128.832 0h-42.946m42.946 0-1.131-.686-3.322-2.014m133.285 2.7 7.44 2.816m-140.725-5.516h-42.054m145.689 8.457 7.1 3.073m-7.1-3.074h44.85m-7.76-2.94 7.76 2.94m0 0 8.11 3.074m-91.72 0 6.36 3.216m-6.36-3.216h45.86m-45.86 0h-45.859m91.719 0 7.42 3.216m-7.42-3.216h45.86m0 0 8.48 3.216m-93.84 0h46.92m-46.92 0h-46.914m101.614 3.368-7.78-3.368m7.78 3.368 8.16 3.532m-8.16-3.532h48.03m-55.81-3.368h46.92m-140.754 0h-46.92m46.92 0-5.305-3.216m146.059 3.216 8.89 3.368m-154.949-6.584h-45.857m160.936 10.116 8.55 3.707m-8.55-3.707h49.19m-9.32-3.532 9.32 3.532m0 0 9.78 3.707m-100.83 0 7.71 3.896m-7.71-3.896h50.41m-50.41 0h-50.42m100.83 0 9 3.896m-9-3.896h50.42m0 0 10.28 3.896m-103.4 0h51.7m-51.7 0h-51.705m112.875 4.1-9.47-4.1m9.47 4.1 9.97 4.32m-9.97-4.32h53.05m-62.52-4.1h51.7m-155.105 0h-51.703m51.703 0-6.425-3.896m161.53 3.896 10.82 4.1m-172.35-7.996h-50.419m179.689 12.316 10.53 4.559m-10.53-4.559h54.48m-11.4-4.32 11.4 4.32m0 0 12.03 4.559m-111.96 0 9.53 4.817m-9.53-4.817h55.98m-55.98 0h-55.989m111.969 0 11.12 4.817m-11.12-4.817h55.98m0 0 12.72 4.817m-115.15 0h57.57m-57.57 0h-57.57m126.92 5.1-11.78-5.1m11.78 5.1 12.48 5.405m-12.48-5.406h59.25m-71.03-5.099h57.58m-172.72 0h-57.577m57.577 0-7.949-4.817m180.669 4.817 13.45 5.1M999.421 70.91h-55.984m203.333 15.322 13.25 5.741m-13.25-5.741h61.04m-14.27-5.406 14.27 5.406m0 0 15.15 5.741m-125.87 0 12.09 6.109m-12.09-6.109h62.93m-62.93 0h-62.93m125.86 0 14.11 6.109m-14.11-6.109h62.94m0 0 16.12 6.109m-129.9 0h64.95m-64.95 0h-64.94m144.93 6.513-15.04-6.513m15.04 6.513 16.07 6.959m-16.07-6.959h67.09m-82.13-6.513h64.95m-194.84 0h-64.952m64.952 0-10.08-6.109m204.92 6.109 17.18 6.513m-222.1-12.622h-62.932m234.012 19.581 17.2 7.451m-17.2-7.451h69.39m-18.37-6.959 18.37 6.959m0 0 19.66 7.451m-143.7 0 15.83 7.999m-15.83-7.999h71.85m-71.85 0h-71.85m143.7 0 18.47 7.999m-18.47-7.999h71.85m0 0 21.11 7.999m-148.98 0h74.49m-74.49 0h-74.48m168.85 8.609-19.88-8.609m19.88 8.609 21.45 9.291m-21.45-9.291h77.33m-97.21-8.609h74.49m-223.46 0h-74.49m74.49 0-13.2-7.999m236.66 7.999 22.72 8.609m-22.72-8.609h74.49m-311.15-7.999h-71.84m275.34 25.899 23.23 10.058m-23.23-10.058h80.39m-24.51-9.291 24.51 9.291m27.26-17.9h48.72m-75.98 17.9 26.55 10.058m-26.55-10.058h75.98m-216.85 10.058 21.62 10.924m-21.62-10.924h83.71m-83.71 0h-83.71m167.42 0 25.22 10.924m-25.22-10.924h83.71m0 0 28.82 10.924m-28.82-10.924h49.43m-195.23 10.924h87.31m-87.31 0h-87.31m202.11 11.907-27.49-11.907m27.49 11.907 30.09 13.029m-30.09-13.029h80.43m-107.92-11.907H1418m-261.93 0h-87.32m87.32 0-18.02-10.924M1418 165.886h20.61m-20.61 0 20.61 7.81m-300.56-18.734h-83.71m333.93 35.86 33.05 14.316m-33.05-14.316h50.34m-117.55 14.316 31.28 15.806m-31.28-15.806h100.26m-100.26 0H1220.8m200.52 0 17.29 7.488m-17.29-7.488h17.29m-86.27 15.806h-105.47m105.47 0h86.27m-191.74 0H1141.4m105.47 0-26.07-15.806m0 0h-100.26M791.644 10.544l.161.243.161.245.162.246.163.247.493.747.166.252m-1.306-1.98h36.072m-36.072 0h-36.072m70.253-1.911-1.376-1.39-.45-.455m1.826 1.845 1.174 1.186.717.725m-1.891-1.911h35.441m-37.267-1.845h34.833m-34.833 0-1.329-1.343-.436-.44m-34.245 0-.143-.219-.571-.865-.423-.64m1.137 1.724h34.245m-34.245 0h-34.244m73.971 5.539.24.243.243.245.243.246.245.247.988.999m-1.959-1.98h36.072m-2.522-1.911-1.833-1.39-.601-.455m2.434 1.845 2.522 1.91m-4.956-3.755-1.187-.9-.876-.664-.289-.22m-34.246 0-.216-.218-.429-.434-.427-.431-.212-.214-.421-.426m1.705 1.724h34.246m7.308 5.539 1.95 1.478.662.502m24.325-7.52-2.141-1.297-.702-.426m2.843 1.724H856.48m0 0-1.994-1.512-.281-.212m-61.255 9.243h36.725m-36.725 0h-36.725m75.481 2.053-2.031-2.053m2.031 2.053 2.108 2.13m-2.108-2.13h37.402m-39.433-2.053H866.4m-110.175 0H719.5m36.725 0-.653-1.98m110.828 1.98 2.708 2.053m-113.536-4.033H719.5m114.314 6.163.54.545.819.827.83.84m-2.189-2.212h38.106m-2.812-2.13.347.261 2.465 1.869m0 0 .358.272.361.273.362.274 1.836 1.392m-77.668 0 1.516 2.299m-1.516-2.299h38.834m-38.834 0h-38.835m77.669 0 2.274 2.299m-2.274-2.299h38.834m0 0 2.263 1.716.385.29.385.293m-79.185 0h39.592m-39.592 0h-39.593m81.55 2.39.302.305.304.306.305.309 1.55 1.566m-2.461-2.487-1.194-1.207-.295-.297-.293-.297-.583-.588m2.365 2.39h40.38m-42.745-2.39h39.593m-118.778 0H719.5m39.592 0-.758-2.299m119.536 2.299 3.152 2.39m-122.688-4.689H719.5m123.603 7.175 2.237 2.26.325.33m-2.562-2.59h41.2m-3.281-2.487.809.612 2.472 1.875m0 0 1.266.958 2.152 1.631m-84.111 0 .882 1.336.222.338.677 1.026m-1.781-2.7h42.055m-42.055 0h-42.055m84.11 0 2.672 2.7m-2.672-2.7h42.056m0 0 3.561 2.7m-85.891 0h42.946m-42.946 0h-42.946m88.678 2.816-2.786-2.816m2.786 2.816 2.91 2.94m-2.91-2.94h43.875m-46.661-2.816h42.945m-128.837 0H719.5m42.945 0-.226-.686-.445-1.35-.219-.664m129.727 2.7 3.716 2.816m-133.443-5.516H719.5m134.533 8.457 2.268 2.292.774.781m-3.042-3.074h44.845m-3.88-2.94 3.88 2.94m0 0 2.005 1.52 2.051 1.554m-91.717 0 2.121 3.216m-2.121-3.216h45.858m-45.858 0h-45.859m91.717 0 3.182 3.216m-3.182-3.216h45.859m0 0 4.242 3.216m-93.838 0h46.919m-46.919 0h-46.919m97.172 3.368-.849-.856-2.485-2.512m3.334 3.368 3.494 3.532m-3.494-3.532h48.03m-51.364-3.368h46.919m-140.757 0H719.5m46.919 0-1.061-3.216m141.818 3.216 4.445 3.368m-146.263-6.584H719.5m147.585 10.116 3.668 3.707m-3.668-3.707h49.195m-4.659-3.532 4.659 3.532m0 0 4.891 3.707m-100.835 0 2.57 3.896m-2.57-3.896h50.417m-50.417 0h-50.418m100.835 0 3.856 3.896m-3.856-3.896h50.418m0 0 5.141 3.896m-103.406 0h51.703m-51.703 0h-51.703m107.464 4.1-4.058-4.1m4.058 4.1 4.275 4.32m-4.275-4.32h53.054m-57.112-4.1h51.703m-155.109 0H719.5m51.703 0-1.128-3.42-.157-.476m156.394 3.896 5.409 4.1m-161.803-7.996H719.5m163.442 12.316 4.511 4.559m-4.511-4.559h54.48m-5.701-4.32 4.247 3.219 1.454 1.101m0 0 6.015 4.559m-111.969 0 3.178 4.817m-3.178-4.817h55.985m-55.985 0h-55.984m111.969 0 4.767 4.817m-4.767-4.817h55.984m0 0 6.356 4.817m-115.147 0h57.574m-57.574 0h-57.573m120.192 5.1-5.045-5.1m5.045 5.1 5.35 5.405m-5.35-5.406h59.255m-64.3-5.099h57.573m-172.72 0H719.5m57.573 0-1.589-4.817m174.309 4.817 6.727 5.1M775.484 70.91H719.5m183.115 15.322 5.681 5.741m-5.681-5.741h61.038m-7.133-5.406 7.133 5.406m0 0 7.575 5.741m-125.864 0 4.03 6.109m-4.03-6.109h62.932m-62.932 0h-62.932m125.864 0 6.045 6.109m-6.045-6.109h62.932m0 0 8.06 6.109m-129.894 0h64.947m-64.947 0h-64.947m136.339 6.513-6.445-6.513m6.445 6.513 6.887 6.959m-6.887-6.959h67.096m-73.541-6.513h64.947m-194.841 0H719.5m64.947 0-2.015-6.109m196.856 6.109 8.594 6.513m-205.45-12.622H719.5m208.173 19.581 7.374 7.451m-7.374-7.451h69.39m-9.181-6.959 9.181 6.959m0 0 9.837 7.451m-143.703 0 5.278 7.999m-5.278-7.999h71.85m-71.85 0h-71.848m143.698 0 7.915 7.999m-7.915-7.999h71.853m0 0 10.55 7.999m-148.975 0h74.487m-74.487 0h-74.488m157.494 8.609-8.519-8.609m8.519 8.609 9.194 9.291m-9.194-9.291h77.329m-85.848-8.609h74.488m-223.463 0H719.5m74.487 0-2.638-7.999m226.101 7.999 11.36 8.609m-237.461-16.608H719.5m241.175 25.899 9.954 10.058m-9.954-10.058h80.395m-12.26-9.291 12.26 9.291m0 0 13.27 10.058m-167.421 0 7.207 10.924m-7.207-10.924h83.71m-83.71 0H803.21m167.419 0 10.81 10.924m-10.81-10.924h83.711m0 0 14.41 10.924m-174.624 0h87.313m-87.313 0h-87.313m186.409 11.907-11.783-11.907m11.783 11.907 12.888 13.029m-12.888-13.029h91.238m-103.021-11.907h87.311m-261.937 0H719.5m87.313 0-3.603-10.924m265.54 10.924 15.71 11.907m-281.25-22.831H719.5m286.61 35.86 14.17 14.316m-14.17-14.316h95.54m-17.19-13.029 17.19 13.029m0 0 18.89 14.316m-200.519 0 10.427 15.806m-10.427-15.806h100.259m-100.259 0h-100.26m200.519 0 15.64 15.806m-15.64-15.806h100.26m0 0 20.86 15.806m-105.48 0H930.448m105.472 0h105.48m-210.952 0H824.974m0 0H719.5m105.474 0-5.213-15.806m0 0H719.5M647.357 10.544l-.162.243-.161.245-.162.246-.163.247-.328.497-.165.25-.166.252m1.307-1.98h36.071m-36.071 0h-36.073m72.774-1.911.609-1.845m-.609 1.845-.63 1.91m.63-1.91H719.5m-34.833-1.845.074-.227.075-.225.074-.224.365-1.107m-.588 1.783H719.5m-68.489-1.783.143-.219.571-.865.423-.64m-1.137 1.724h34.244m-34.244 0h-34.245m66.662 5.539-.081.243-.08.245-.081.246-.411 1.246m.653-1.98H719.5m0-1.911V6.788m0 1.845v1.91m0-3.755V5.005m-34.245 0H719.5m-34.245 0 .215-.653.072-.216.282-.855m33.676 7.263v1.98m34.245-7.52-.215-.652-.072-.216-.07-.215-.072-.214-.069-.214-.071-.212m.569 1.724H719.5m0 0V3.28m-73.45 9.243h36.725m-36.725 0h-36.725m72.773 2.053-.087.261-.086.264-.53 1.605m.703-2.13.677-2.053m-.677 2.053H719.5m-36.725-2.053H719.5m-110.175 0H572.6m36.725 0 .496-.502.247-.25.245-.247.245-.247.243-.246.243-.245.24-.243m108.216 1.98v2.053m-108.216-4.033h-36.072m106.183 6.163-.729 2.211m.729-2.211H719.5m0-2.13v2.13m0 0v2.211m-77.669 0-1.516 2.299m1.516-2.299h38.835m-38.835 0h-38.834m77.669 0-.758 2.299m.758-2.299H719.5m0 0v2.299m-79.185 0h39.593m-39.593 0h-39.592m78.397 2.39.788-2.39m-.788 2.39-.821 2.486m.821-2.487h40.38m-39.592-2.39H719.5m-118.777 0H561.13m39.593 0 2.274-2.298m116.503 2.3v2.39m-116.503-4.689h-38.834m114.136 7.175-.316.958-.321.974-.217.657m.854-2.59H719.5m0-2.486v2.487m0 0v2.59m-84.11 0-.882 1.335-.222.338-.677 1.026m1.781-2.7h42.055m-42.055 0h-42.055m84.11 0-.219.665-.445 1.35-.226.685m.89-2.7H719.5m0 0v2.7m-85.891 0h42.946m-42.946 0h-42.946m84.963 2.816.118-.359.811-2.457m-.929 2.816-.97 2.94m.97-2.94H719.5m-42.945-2.816H719.5m-128.837 0h-42.945m42.945 0 2.672-2.7m126.165 2.7v2.816m-126.165-5.516h-42.056m123.377 8.457-1.014 3.073m1.014-3.074H719.5m0-2.94v2.94m0 0v3.074m-91.717 0-2.121 3.216m2.121-3.216h45.859m-45.859 0h-45.858m91.717 0-1.061 3.216m1.061-3.216H719.5m0 0v3.216m-93.838 0h46.919m-46.919 0h-46.919m92.727 3.368 1.111-3.368m-1.111 3.368-1.165 3.532m1.165-3.532h48.03m-46.919-3.368H719.5m-140.757 0h-46.919m46.919 0 3.182-3.216M719.5 43.428v3.368m-137.575-6.584h-45.859m134.239 10.116-1.223 3.707m1.223-3.707H719.5m0-3.532v3.532m0 0v3.707m-100.836 0-2.57 3.896m2.57-3.896h50.418m-50.418 0h-50.417m100.835 0-1.285 3.896m1.285-3.896H719.5m0 0v3.896m-103.406 0h51.703m-51.703 0h-51.703m102.054 4.1 1.352-4.1m-1.352 4.1-1.425 4.32m1.425-4.32H719.5m-51.703-4.1H719.5m-155.109 0h-51.703m51.703 0 3.856-3.896M719.5 57.931v4.1m-151.253-7.996h-50.418M665.02 66.351l-1.504 4.559m1.504-4.559h54.48m0-4.32v4.32m0 0v4.559m-111.968 0-3.178 4.817m3.178-4.817h55.984m-55.984 0h-55.984m111.968 0-1.589 4.817m1.589-4.817H719.5m0 0v4.817m-115.146 0h57.573m-57.573 0H546.78m113.465 5.1 1.682-5.1m-1.682 5.1-1.783 5.405m1.783-5.406H719.5m-57.573-5.099H719.5m-172.72 0h-57.573m57.573 0 4.768-4.817M719.5 75.727v5.1M551.548 70.91h-55.985m162.899 15.322-1.894 5.741m1.894-5.741H719.5m0-5.406v5.406m0 0v5.741m-125.864 0-4.03 6.109m4.03-6.109h62.932m-62.932 0h-62.932m125.864 0-2.015 6.109m2.015-6.109H719.5m0 0v6.109m-129.894 0h64.947m-64.947 0h-64.947m127.746 6.513 2.148-6.513m-2.148 6.513-2.296 6.959m2.296-6.959H719.5m-64.947-6.513H719.5m-194.841 0h-64.947m64.947 0 6.045-6.109M719.5 98.082v6.513M530.704 91.973h-62.932m182.337 19.581-2.458 7.451m2.458-7.451H719.5m0-6.959v6.959m0 0v7.451m-143.697 0-5.278 7.999m5.278-7.999h71.848m-71.848 0h-71.85m143.698 0-2.638 7.999m2.638-7.999H719.5m0 0v7.999m-148.975 0h74.488m-74.488 0h-74.487m146.135 8.609 2.84-8.609m-2.84 8.609-3.065 9.291m3.065-9.291H719.5m-74.487-8.609H719.5m-223.462 0h-74.487m74.487 0 7.915-7.999m215.547 7.999v8.609m-215.547-16.608h-71.849m207.004 25.899-3.318 10.058m3.318-10.058H719.5m0-9.291v9.291m0 0v10.058m-167.419 0-7.207 10.924m7.207-10.924h83.709m-83.709 0h-83.71m167.419 0-3.603 10.924m3.603-10.924h83.71m0 0v10.924m-174.626 0h87.313m-87.313 0h-87.313m170.699 11.907 3.927-11.907m-3.927 11.907-4.298 13.029m4.298-13.029h91.24m-87.313-11.907H719.5m-261.939 0h-87.313m87.313 0 10.81-10.924M719.5 165.886v11.907m-251.129-22.831h-83.709m239.3 35.86-4.723 14.316m4.723-14.316H719.5m0-13.029v13.029m0 0v14.316m-200.521 0-10.427 15.806m10.427-15.806h100.26m-100.26 0H418.718m200.521 0-5.213 15.806m5.213-15.806H719.5m0 0v15.806m-105.474 0H508.552m105.474 0H719.5m-210.948 0H403.078m0 0H297.603m105.475 0 15.64-15.806m0 0h-100.26M503.069 10.544l-1.942.98-1.977 1m3.919-1.98h36.072m-36.072 0h-36.072m75.295-1.911 3.043-1.845m-3.043 1.845-3.151 1.91m3.151-1.91h35.442m-32.399-1.845h34.833m-34.833 0 2.215-1.343.726-.44m-34.245 0h34.245m-34.245 0 1.293-.653 2.118-1.07m-3.411 1.723h-34.245m59.355 5.539-3.266 1.98m3.266-1.98h36.071m2.522-1.911 2.434-1.845m-2.434 1.845-2.522 1.91m4.956-3.755 1.187-.9.876-.664.289-.22m-34.244 0h34.244m-34.244 0 2.14-1.297.702-.426m24.094 7.263-1.95 1.478-.662.502m44.166-7.52.216-.218.429-.434.639-.645.421-.426m-1.705 1.724H582.52m0 0 .289-.219.573-.434 1.413-1.07m-85.645 9.242h36.725m-36.725 0h-36.725m70.064 2.053.43-.261.428-.26 1.693-1.026.835-.506m-3.386 2.053-2.623 1.59-.89.54m3.513-2.13h37.403m-34.017-2.053H572.6m-110.175 0H425.7m36.725 0 3.444-1.492 1.128-.488m105.603 1.98-2.708 2.053m-102.895-4.033h-36.072m98.051 6.163-.448.272-.451.273-1.364.827-.46.279-.925.56m3.648-2.211h38.104m2.812-2.13-.346.261-2.466 1.869m0 0-.358.272-.361.273-.362.274-1.836 1.392m-77.669 0-4.548 2.299m4.548-2.299h38.834m-38.834 0H447.66m77.668 0-3.79 2.299m3.79-2.299h38.835m0 0-3.033 2.299m-79.184 0h39.592m-39.592 0h-39.593m75.244 2.39 3.941-2.39m-3.941 2.39-4.101 2.486m4.101-2.487h40.381m-36.44-2.39h39.592m-118.777 0h-39.592m39.592 0 5.307-2.298m113.47 2.299-3.152 2.39m-110.318-4.69h-38.835m104.671 7.175-4.271 2.59m4.271-2.59h41.201m3.281-2.487-.809.612-2.472 1.875m0 0-1.266.958-1.284.974-.868.657m-84.11 0-2.643 1.336-2.699 1.364m5.342-2.7h42.056m-42.056 0h-42.055m84.111 0-4.453 2.7m4.453-2.7h42.054m0 0-3.561 2.7m-85.891 0h42.945m-42.945 0h-42.945m81.246 2.816 4.644-2.816m-4.644 2.816-4.85 2.94m4.85-2.94h43.874m-39.23-2.816h42.946m-128.836 0h-42.946m42.946 0 6.232-2.7m122.604 2.7-3.716 2.816m-118.888-5.516h-42.055m112.219 8.457-1.247.755-3.822 2.318m5.069-3.074h44.844m3.88-2.94-3.88 2.94m0 0-.497.377-1.508 1.143-2.051 1.554m-91.716 0-6.365 3.216m6.365-3.216h45.859m-45.859 0h-45.858m91.717 0-5.304 3.216m5.304-3.216h45.857m0 0-4.242 3.216m-93.839 0h46.92m-46.92 0h-46.919m88.283 3.368 3.503-2.123 2.053-1.245m-5.556 3.368-5.824 3.532m5.824-3.532h48.03m-42.474-3.368h46.919m-140.758 0h-46.919m46.919 0 7.426-3.216m133.332 3.216-4.445 3.368m-128.887-6.584h-45.859m120.892 10.116-6.114 3.707m6.114-3.707h49.195m4.659-3.532-4.659 3.532m0 0-4.891 3.707m-100.836 0-7.711 3.896m7.711-3.896h50.418m-50.418 0h-50.418m100.836 0-6.426 3.896m6.426-3.896h50.418m0 0-5.141 3.896m-103.406 0h51.703m-51.703 0h-51.703m96.644 4.1 6.762-4.1m-6.762 4.1-7.125 4.32m7.125-4.32h53.056m-46.294-4.1h51.703m-155.109 0h-51.703m51.703 0 8.996-3.896m146.113 3.896-5.409 4.1m-140.704-7.996h-50.418M447.098 66.35l-7.519 4.559m7.519-4.559h54.48m5.701-4.32-5.701 4.32m0 0-6.015 4.559m-111.968 0-9.534 4.817m9.534-4.817h55.984m-55.984 0h-55.984m111.968 0-7.945 4.817m7.945-4.817h55.984m0 0-6.356 4.817m-115.146 0h57.573m-57.573 0h-57.573m106.736 5.1 8.41-5.1m-8.41 5.1-8.915 5.405m8.915-5.406h59.256m-50.846-5.099h57.573m-172.719 0h-57.574m57.574 0 11.123-4.817m161.596 4.817-6.727 5.1M327.611 70.91h-55.984m142.682 15.322-9.469 5.741m9.469-5.741h61.038m7.133-5.406-7.133 5.406m0 0-7.575 5.741m-125.865 0-12.09 6.109m12.09-6.109h62.933m-62.933 0h-62.932m125.865 0-10.076 6.109m10.076-6.109h62.932m0 0-8.06 6.109m-129.895 0h64.947m-64.947 0H264.87m119.153 6.513 10.741-6.513m-10.741 6.513-11.478 6.959m11.478-6.959h67.095m-56.354-6.513h64.948m-194.842 0h-64.947m64.947 0 14.105-6.109m180.737 6.109-8.594 6.513M278.975 91.973h-62.932m156.502 19.581-12.289 7.451m12.289-7.451h69.392m9.181-6.959-9.181 6.959m0 0-9.833 7.451m-143.697 0-15.831 7.999m15.831-7.999h71.849m-71.849 0h-71.849m143.698 0-13.193 7.999m13.193-7.999h71.848m0 0-10.553 7.999m-148.975 0h74.487m-74.487 0h-74.487m134.776 8.609 14.198-8.609m-14.198 8.609-15.324 9.291m15.324-9.291h77.327m-63.129-8.609h74.488m-223.462 0h-74.488m74.488 0 18.469-7.999m204.993 7.999-11.359 8.609m-193.634-16.608h-71.849m172.832 25.899-16.589 10.058m16.589-10.058h80.391m12.26-9.291-12.26 9.291m0 0-13.27 10.058m-167.42 0-21.62 10.924m21.62-10.924h83.71m-83.71 0h-83.709m167.419 0-18.017 10.924m18.017-10.924h83.71m0 0-14.414 10.924m-174.626 0h87.313m-87.313 0h-87.313m154.988 11.907 19.638-11.907m-19.638 11.907-21.488 13.029m21.488-13.029h91.241m-71.603-11.907h87.313m-261.939 0H20.996m87.313 0 25.224-10.924m236.715 10.924-15.71 11.907m-221.005-22.831h-83.71m191.986 35.86-23.611 14.316m23.611-14.316h95.539m17.19-13.029-17.19 13.029m0 0-18.89 14.316m-200.521 0-31.282 15.806m31.282-15.806h100.261m-100.261 0H17.676m200.522 0-26.068 15.806m26.068-15.806h100.26m0 0-20.855 15.806m-105.473 0H86.655m105.475 0h105.473m-210.948 0H.387m17.289-15.806L.387 212.626m17.289-7.488H.387M358.781 10.544l-6.531 1.98m6.531-1.98h36.072m-36.072 0h-36.072m77.817-1.911 5.478-1.845m-5.478 1.845-5.673 1.91m5.673-1.91h35.441m-29.963-1.845h34.832m-34.832 0 5.293-1.783m-34.246 0h34.246m-34.246 0 2.155-.653 3.531-1.07m-5.686 1.723h-34.245m52.047 5.539-5.878 1.98m5.878-1.98h36.072m5.042-1.911 4.869-1.845m-4.869 1.845-5.042 1.91m9.911-3.755 3.544-1.343 1.161-.44m-34.244 0 .648-.219 4.468-1.505m-5.116 1.724h34.244m-14.616 5.539-5.225 1.98m54.086-7.52 3.98-1.723m-3.98 1.724h-34.245m0 0 1.724-.653 2.825-1.07m-97.84 9.242h36.725m-36.725 0h-36.725m67.355 2.053 6.095-2.053m-6.095 2.053-6.323 2.13m6.323-2.13h37.402m-31.307-2.053H425.7m-110.175 0H278.8m36.725 0 7.184-1.98m102.991 1.98-5.418 2.053m-97.573-4.033h-36.071m89.919 6.163-1.619.545-4.948 1.666m6.567-2.211h38.104m5.621-2.13-5.621 2.13m0 0-5.836 2.211m-77.669 0-.931.283-6.649 2.015m7.58-2.298h38.834m-38.834 0h-38.834m77.668 0-6.822 2.299m6.822-2.299h38.835m0 0-.745.283-5.319 2.015m-79.185 0h39.592m-39.592 0h-39.592m72.091 2.39 7.093-2.39m-7.093 2.39-7.382 2.487m7.382-2.487h40.38m-33.287-2.39h39.593m-118.777 0h-39.593m39.593 0 8.338-2.298m110.439 2.299-6.306 2.39m-104.133-4.689h-38.835m95.206 7.175-7.689 2.59m7.689-2.59h41.2m6.562-2.487-6.562 2.487m0 0-6.834 2.59m-84.11 0-8.904 2.699m8.904-2.7h42.055m-42.055 0h-42.055m84.11 0-8.014 2.7m8.014-2.7h42.055m0 0-7.123 2.7m-85.891 0h42.945m-42.945 0h-42.946m77.531 2.816 8.36-2.816m-8.36 2.816-8.731 2.94m8.731-2.94h43.874m-35.514-2.816h42.946m-128.837 0h-42.945m42.945 0 9.795-2.7m119.042 2.7-7.432 2.816m-111.61-5.516h-42.055m101.06 8.457-9.124 3.073m9.124-3.074h44.845m7.76-2.94-7.76 2.94m0 0-8.111 3.074m-91.716 0-10.608 3.216m10.608-3.216h45.858m-45.858 0h-45.859m91.717 0-9.547 3.216m9.547-3.216h45.858m0 0-8.486 3.216m-93.838 0h46.919m-46.919 0H203.39m83.839 3.368 9.999-3.368m-9.999 3.368-10.484 3.532m10.484-3.532h48.03m-38.031-3.368h46.919m-140.757 0h-46.919m46.919 0 11.668-3.216m129.089 3.216-8.888 3.368m-120.201-6.584H169.2m107.545 10.116-11.006 3.707m11.006-3.707h49.194m9.32-3.532-9.32 3.532m0 0-9.782 3.707m-100.836 0-12.851 3.896m12.851-3.896h50.418m-50.418 0h-50.417m100.835 0-11.566 3.896m11.566-3.896h50.418m0 0-10.281 3.896m-103.406 0h51.703m-51.703 0h-51.703m91.234 4.1 12.172-4.1m-12.172 4.1-12.825 4.32m12.825-4.32h53.055m-40.883-4.1h51.703m-155.109 0H99.064m51.703 0 14.137-3.896m140.972 3.896-10.82 4.1m-130.152-7.996h-50.418m114.69 12.316-13.534 4.559m13.534-4.559h54.48m11.4-4.32-11.4 4.32m0 0-12.029 4.559m-111.969 0-15.89 4.817m15.89-4.817h55.984m-55.984 0h-55.984m111.968 0-14.301 4.817m14.301-4.817h55.985m0 0-12.713 4.817m-115.146 0h57.573m-57.573 0H86.195m100.009 5.1 15.137-5.1m-15.137 5.1-16.048 5.405m16.048-5.406h59.255m-44.118-5.099h57.573m-172.72 0H28.622m57.574 0 17.479-4.817m155.24 4.817-13.455 5.1M103.674 70.91H47.69m122.466 15.322-17.045 5.741m17.045-5.741h61.038m14.265-5.406-14.265 5.406m0 0-15.151 5.741m-125.864 0-20.15 6.109m20.15-6.109h62.932m-62.932 0H27.247m125.864 0-18.135 6.109m18.135-6.109h62.932m0 0-16.12 6.109m-129.894 0h64.947m-64.947 0H5.082m110.558 6.513 19.336-6.513m-19.336 6.513-20.658 6.959m20.658-6.959h67.096m-47.76-6.513h64.947m-194.841 0 22.165-6.109M5.082 98.082H.387m4.695 0L.387 99.376m199.536-1.294-17.187 6.513M27.246 91.973H.388m94.595 19.581-22.122 7.451m22.122-7.451h69.391m18.363-6.959-18.363 6.959m0 0-19.664 7.451m-143.698 0h71.85m-71.85 0H.387m.624 0-.624.189m72.473-.189-23.747 7.999m23.747-7.999h71.849m0 0-21.108 7.999m-100.045 8.609 25.557-8.609m-25.557 8.609h77.327m-77.327 0H.387m23.17 0-23.17 7.804m48.726-16.413h74.488m-74.488 0H.387m123.214 0-22.718 8.609m0 0-24.518 9.291m0 0-26.542 10.058m26.542-10.058H.387m49.436 10.058-28.827 10.924m28.827-10.924H.387m20.609 10.924H.387m20.609 0-20.609 7.81M214.493 10.544l-9.143 1.98m9.143-1.98h36.073m-36.073 0h-36.071m80.337-1.911 7.913-1.845m-7.913 1.845-8.193 1.91m8.193-1.91h35.442m-27.529-1.845h34.832m-34.832 0 7.645-1.783m-34.245 0h34.245m-34.245 0 7.96-1.724m-7.96 1.724h-34.245m44.739 5.539-8.491 1.98m8.491-1.98h36.072m7.563-1.911 7.303-1.845m-7.303 1.845-7.563 1.91m14.866-3.755 7.058-1.783m-34.245 0 .937-.219 6.454-1.505m-7.391 1.724h34.245m-21.924 5.539-7.838 1.98m64.006-7.52 6.254-1.723m-6.254 1.724h-34.244m0 0 .865-.219 5.957-1.505M205.35 12.524h36.725m-36.725 0h-36.725m64.646 2.053 8.804-2.053m-8.804 2.053-9.134 2.13m9.134-2.13h37.403m-28.599-2.053H278.8m-110.175 0H131.9m36.725 0 9.797-1.98m100.378 1.98-8.126 2.053m-92.252-4.033H142.35m81.787 6.163-9.484 2.211m9.484-2.211h38.105m8.432-2.13-1.037.261-7.395 1.869m0 0-8.755 2.211m-77.668 0-10.613 2.299m10.613-2.299h38.834m-38.834 0h-38.835m77.669 0-9.854 2.299m9.854-2.299h38.834m0 0-9.096 2.299m-79.185 0h39.593m-39.593 0h-39.592m68.938 2.39 10.247-2.39m-10.247 2.39-10.663 2.486m10.663-2.487h40.381m-30.134-2.39h39.592m-118.777 0H86.022m39.592 0 11.37-2.298m107.407 2.299-9.458 2.39m-97.949-4.689H98.15m85.739 7.175-11.105 2.59m11.105-2.59h41.201m9.843-2.487-9.843 2.487m0 0-10.251 2.59m-84.11 0-12.466 2.699m12.466-2.7h42.055m-42.055 0H88.673m84.111 0-11.575 2.7m11.575-2.7h42.055m0 0-10.685 2.7m-85.891 0h42.946m-42.946 0H75.317m73.815 2.816 12.077-2.816m-12.077 2.816-12.61 2.94m12.61-2.94h43.875m-31.798-2.816h42.945m-128.837 0H32.372m42.945 0 13.356-2.7m115.481 2.7-11.147 2.816M88.673 28.682H46.62m89.903 8.457-13.181 3.073m13.181-3.074h44.844m11.641-2.94-11.641 2.94m0 0L169.2 40.212m-91.717 0-14.85 3.216m14.85-3.216h45.858m-45.858 0H31.625m91.716 0-13.789 3.216m13.789-3.216H169.2m0 0-12.729 3.216m-93.839 0h46.92m-14.444 3.368 14.444-3.368m-14.444 3.368-15.143 3.532m15.143-3.532h48.031m-33.587-3.368h46.919m0 0-13.332 3.368M31.625 40.212H.387m79.578 10.116-15.897 3.707m15.897-3.707h49.194m13.98-3.532-13.98 3.532m0 0-14.673 3.707m-100.836 0h50.418m-50.418 0H.387m13.263 0L.387 56.907m63.68-2.872L47.36 57.931m16.708-3.896h50.418m0 0-15.422 3.896m-69.284 4.1 17.58-4.1m-17.58 4.1-18.526 4.32m18.526-4.32h53.055m-53.055 0H.386m46.973-4.1h51.704m-51.704 0H.387m98.677 0-16.229 4.1M.241 56.938l.146-.031m10.867 9.444h54.48m-54.48 0H.387m10.867 0L.387 68.885m82.448-6.854-17.1 4.32m0 0L47.69 70.91m0 0-19.07 4.817m19.07-4.817H.387m8.051 9.916 20.183-5.099m-20.183 5.1H.388m8.05 0L.388 82.86m28.233-7.133H.387m69.82-65.183-11.757 1.98m11.756-1.98h36.072m-36.072 0H34.134m82.859-1.911 10.347-1.845m-10.347 1.845-10.715 1.91m10.715-1.91h35.442M127.34 6.788h34.833m-34.833 0 9.997-1.783m-34.245 0h34.245m-34.245 0 10.234-1.724m-10.234 1.724H68.848m37.43 5.539-11.103 1.98m11.103-1.98h36.072m10.085-1.911 9.738-1.845m-9.738 1.845-10.085 1.91m19.823-3.755 9.409-1.783m-34.245 0h34.245m-34.245 0 9.666-1.724m-4.653 7.263-10.45 1.98m73.927-7.52 8.529-1.723m-8.529 1.724h-34.245m0 0 9.097-1.724M58.45 12.524h36.725m-36.725 0H21.725m61.938 2.053 11.512-2.053m-11.512 2.053-11.945 2.13m11.945-2.13h37.402m-25.89-2.053H131.9m-110.175 0 12.409-1.98m-12.409 1.98H.387m131.513 0-10.835 2.053m-86.931-4.033H.387m71.331 6.163-12.402 2.211m12.402-2.211h38.105m11.242-2.13-11.242 2.13m0 0L98.15 18.918m-77.669 0L6.837 21.217m13.644-2.299h38.835m-38.835 0H.387m58.929 0-12.887 2.299m12.887-2.299H98.15m0 0-12.128 2.299m-52.992 2.39 13.4-2.39m-13.4 2.39-13.944 2.486m13.944-2.487h40.38m-40.38 0H.387m46.042-2.39H6.837m39.592 0h39.593m-79.185 0-6.45 1.087m6.45-1.087H.387m85.635 0-12.612 2.39m-54.324 2.487-14.523 2.59m14.523-2.59h41.2m-41.2 0H.387m73.023-2.487-13.124 2.487m0 0-13.667 2.59m-42.056 0H46.62m-42.056 0-4.176.744m4.176-.745H.387m46.232 0-14.247 2.7M17.51 34.198l14.863-2.816M17.51 34.198l-15.52 2.94m15.52-2.94H.387m31.985-2.816H.387m-.224 0h.224m1.602 5.756H.387m1.602 0-1.602.304M0 37.515l.387-.073m10.281-28.81 12.173-1.844M10.668 8.633H.388m10.28 0L.388 10.19M22.84 6.788l11.762-1.783M22.84 6.788H.387m68.46-1.783L79.65 3.28M68.848 5.005H34.603m0 0 11.37-1.724m-11.37 1.724H.387M1190.97 3.28h33.67m-33.67 0h-33.68m59.1-1.667 2.04.412 6.21 1.255m-8.25-1.667h33.13m-24.88 1.667h33.68m-8.8-1.667 2.17.412 1.1.207 5.53 1.048m0 0H1292m0 0h33.67m-168.38 0h-33.67m202.05 0h33.68m0 0-10.45-1.667m10.45 1.667h33.68m-44.13-1.667h33.13M1056.26 3.28h33.68m-33.68 0h-33.67m61.3-1.667 1.49.412.76.207 3.8 1.048m-6.05-1.667h33.13m-27.08 1.667h33.68m-6.6-1.667 6.6 1.667m-101.03 0h-33.68m-67.352 0h33.676m-33.676 0h-33.676m63.502-1.667.475.205.475.207.479.207 2.421 1.048m-3.85-1.667h33.126M955.234 3.28h33.676m-4.4-1.667 4.4 1.667m-101.028 0h-33.677m-67.353 0h33.677m-33.677 0h-33.676m65.703-1.667 1.65 1.667m-1.65-1.667h33.126M820.529 3.28h33.676m-2.2-1.667.272.205.272.207.273.207 1.383 1.048m-101.029 0H719.5m-67.352 0h33.676m-33.676 0h-33.677m67.903-1.667-.55 1.667m.55-1.667H719.5M685.824 3.28H719.5m0-1.667V3.28m-101.029 0h-33.676m-67.353 0h33.676m-33.676 0h-33.676m70.102-1.667-.679.412-1.375.833-.696.422m2.75-1.667h33.127M551.118 3.28h33.677m2.2-1.667-.272.205-.272.207-.273.207-1.383 1.048m-101.029 0H450.09m-67.353 0h33.676m-33.676 0H349.06m72.303-1.667-1.222.412-.615.207-3.113 1.048m4.95-1.667h33.127M416.413 3.28h33.677m4.4-1.667-.543.205-3.857 1.462m-101.03 0h-33.676m-67.352 0h33.676m-33.676 0h-33.676m74.502-1.667-1.766.412-.888.207-4.496 1.048m7.15-1.667h33.126M281.708 3.28h33.676m6.6-1.667-.813.205-5.787 1.462m-101.028 0h-33.677m-67.353 0h33.677m-33.677 0H79.65m76.702-1.667-9.349 1.667m9.349-1.667h33.127M147.003 3.28h33.676m8.8-1.667-2.173.412-1.093.207-5.534 1.048m-101.029 0H45.974M23.848 1.614l-11.55 1.667m11.55-1.667h33.126m-33.126 0H.388m11.91 1.667h33.676m-33.676 0L.388 5.001m11.91-1.72H.388m56.586-1.667-2.716.412-8.284 1.255M1382.03 1.614l2.71.412 8.29 1.255m0 0h33.67m0 0 11.91 1.72m-11.91-1.72h11.91m0 79.579v-2.034m0 2.034v3.372m0-5.406v-5.099m0 10.505v5.741m0 0v6.109m0-54.654v-3.216m0 3.216v3.098m0-44.912v1.667m0 0v1.72m0 0 .03.004h-.03m0-.004v.004m0 0v1.783m0 0v1.845m0 0v1.558m0 0v.353m0 0v1.98m0 0v2.053m0 0v1.351m0 0v.779m0 0v2.211m0 0v2.299m0 0v1.086m0 0v1.303m0 0v2.487m0 0v2.59m0 0v.744m0 0v1.955m0 0v2.816m0 0v2.94m0 0v.304m0 0v2.77m0 6.584v3.532m0-3.532v-.27m0 3.802v3.707m0 0v2.872m0 0v1.024m0 0v4.1m0 0v4.32m0 0v2.534m0 0v2.025m0 0v4.817m0 22.355v1.294m0 0v5.219m0 0v6.959m0 0v7.451m0 0v.189m0 0v7.81m0 0v8.609m0 0v7.804m0 0v1.487m0 0v10.058m0 0v10.924m0 0v7.81m0 0v4.097m0 0v13.029m0 0v14.316m0 0v7.488m0 0v8.318m0 0V221H.387v-.056m0-174.148v3.532m0-3.532v-.27m0 0v-3.098m0 0v-3.216m0 0v-2.77m0 0v-.303m0 0v-2.941m0 0v-2.816m0 0v-1.955m0 0v-.745m0 0v-2.59m0 0v-2.486m0 0v-1.303m0 0v-1.087m0 0v-2.298m0 0v-2.211m0 0v-.779m0 0v-1.351m0 0v-2.053m0 0v-1.98m0 0v-.353m0 0V8.633m0 0V6.788m0 0V5.005m0 0H.358L.388 5m0 .004V5m0 0V3.28m0 0V1.614m0 219.33v-8.318m0 0v-7.488m0 0v-14.316m0 0v-13.029m0 0v-4.097m0 0v-7.81m0 0v-10.924m0 0v-10.058m0 0v-1.487m0 0v-7.804m0 0v-8.609m0 0v-7.81m0 0v-.189m0 0v-7.451m0 0v-6.959m0 0v-5.22m0 0v-1.293m0 0v-6.109m0 0v-5.741m0 0V82.86m0 0v-2.034m0 0v-5.099m0 0V70.91m0 0v-2.025m0 0v-2.534m0 0v-4.32m0 0v-4.1m0 0v-1.024m0 0v-2.872m0 0v-3.707"/><defs><radialGradient id="a" cx="0" cy="0" r="1" gradientTransform="matrix(0 -355.313 1113.87 0 719.5 222.221)" gradientUnits="userSpaceOnUse"><stop stop-color="#B0D3ED"/><stop offset=".742" stop-color="#B0D3ED" stop-opacity="0"/></radialGradient></defs></svg>