<svg width="712" height="231" viewBox="0 0 712 231" fill="none" xmlns="http://www.w3.org/2000/svg">
<circle cx="118" cy="115.357" r="108" fill="#3384FF"/>
<g filter="url(#filter0_d_86_225)">
<path d="M71.0875 115.355C71.0762 124.007 71.8495 132.641 73.3968 141.15C66.0774 138.077 60.0455 134.314 55.7509 130.133C51.0203 125.527 48.475 120.499 48.475 115.357C48.475 107.533 54.4064 99.9451 64.7704 93.8295L65.3273 93.5009L65.4203 92.861C66.0524 88.5135 66.8629 84.3096 67.8514 80.2489L68.5096 77.5447L65.9784 78.7018C47.6567 87.0772 35.65 100.109 35.65 115.357C35.65 133.473 52.5688 148.45 77.0921 156.265C84.9122 180.788 99.8835 197.707 118 197.707C133.227 197.707 146.248 185.732 154.624 167.445L155.789 164.903L153.074 165.572C149.008 166.575 144.803 167.417 140.43 168.053L139.792 168.146L139.463 168.701C133.359 179.002 125.797 184.882 118 184.882C112.856 184.882 107.827 182.337 103.222 177.606C99.0421 173.312 95.2802 167.28 92.2065 159.96C100.716 161.508 109.35 162.281 118.002 162.269C140.892 162.269 161.38 157.229 176.195 148.896C190.979 140.58 200.35 128.823 200.35 115.357C200.35 97.2405 183.431 82.2642 158.908 74.4489C151.088 49.9259 136.117 33.0069 118 33.0069C104.534 33.0069 92.7767 42.378 84.4607 57.1623C76.1276 71.9769 71.0878 92.4651 71.0875 115.355ZM83.9125 115.36V115.357C83.9125 96.3195 87.9367 78.8141 94.286 66.116C100.684 53.3204 109.199 45.8319 118 45.8319C123.144 45.8319 128.173 48.3774 132.778 53.1078C136.958 57.4023 140.72 63.4342 143.793 70.7536C135.284 69.2061 126.65 68.4329 117.998 68.4444C112.582 68.4453 107.17 68.7386 101.786 69.3231L101.044 69.4036L100.718 70.0743C98.9875 73.6287 97.5258 77.3078 96.3452 81.0806L95.6977 83.1495L97.8401 82.8179C104.51 81.7854 111.25 81.2677 118 81.2694L118.003 81.2694C128.26 81.2463 138.481 82.4712 148.441 84.9163C150.886 94.8758 152.111 105.097 152.088 115.354V115.357C152.088 122.095 151.572 128.823 150.544 135.482L150.214 137.617L152.278 136.977C156.048 135.809 159.726 134.359 163.279 132.641L163.953 132.315L164.034 131.571C164.618 126.187 164.912 120.775 164.912 115.359C164.924 106.706 164.151 98.0728 162.603 89.5635C169.923 92.6373 175.954 96.4003 180.249 100.581C184.98 105.186 187.525 110.215 187.525 115.357C187.525 124.158 180.037 132.673 167.241 139.071C154.543 145.42 137.037 149.444 118 149.444L117.997 149.444C107.74 149.468 97.5189 148.243 87.5594 145.798C85.1143 135.838 83.8894 125.617 83.9125 115.36ZM118 79.9194C128.639 79.8955 139.239 81.1999 149.555 83.8024L118 79.9194Z" fill="white" stroke="white" stroke-width="2.7"/>
<path d="M133.715 104.857C135.792 107.965 136.9 111.619 136.9 115.357C136.9 120.37 134.909 125.177 131.364 128.721C127.82 132.266 123.013 134.257 118 134.257C114.262 134.257 110.608 133.148 107.5 131.072C104.392 128.995 101.969 126.043 100.539 122.59C99.1082 119.136 98.7339 115.336 99.4632 111.67C100.192 108.003 101.992 104.636 104.636 101.993C107.279 99.3494 110.647 97.5494 114.313 96.8201C117.979 96.0908 121.779 96.4651 125.233 97.8956C128.686 99.3261 131.638 101.749 133.715 104.857Z" fill="white" stroke="white" stroke-width="2.7"/>
</g>
<path d="M314.44 160.037C289.24 160.037 272.16 142.397 272.16 112.437C272.16 82.4769 289.24 65.6769 314.44 65.6769C339.64 65.6769 356.72 82.6169 356.72 112.437C356.72 142.397 339.64 160.037 314.44 160.037ZM314.44 139.317C325.36 139.317 332.08 128.957 332.08 112.437C332.08 95.9169 325.36 86.3969 314.44 86.3969C303.52 86.3969 296.8 95.9169 296.8 112.437C296.8 128.957 303.52 139.317 314.44 139.317ZM387.574 158.357L364.614 88.3569H388.694L396.254 118.877C397.934 125.877 399.614 133.157 401.294 140.717H401.854C403.534 133.157 405.214 125.877 406.894 118.877L414.454 88.3569H437.414L415.294 158.357H387.574ZM442.199 123.357C442.199 100.677 458.719 86.6769 475.799 86.6769C496.519 86.6769 506.319 101.797 506.319 120.557C506.319 124.757 505.759 128.397 505.339 130.077H465.439C467.679 139.037 473.839 141.837 481.679 141.837C486.439 141.837 490.919 140.437 495.959 137.637L503.799 151.917C496.239 157.237 486.159 160.037 478.319 160.037C457.879 160.037 442.199 146.597 442.199 123.357ZM465.159 115.517H485.879C485.879 109.637 483.639 104.877 476.359 104.877C471.039 104.877 466.559 107.817 465.159 115.517ZM519.53 158.357V88.3569H539.13L540.81 96.7569H541.37C546.97 91.4369 553.97 86.6769 563.49 86.6769C578.89 86.6769 585.33 97.8769 585.33 115.237V158.357H561.25V118.317C561.25 109.357 559.01 107.117 554.25 107.117C549.77 107.117 547.25 109.077 543.61 112.437V158.357H519.53Z" fill="black"/>
<defs>
<filter id="filter0_d_86_225" x="28.3" y="31.657" width="179.4" height="179.4" filterUnits="userSpaceOnUse" color-interpolation-filters="sRGB">
<feFlood flood-opacity="0" result="BackgroundImageFix"/>
<feColorMatrix in="SourceAlpha" type="matrix" values="0 0 0 0 0 0 0 0 0 0 0 0 0 0 0 0 0 0 127 0" result="hardAlpha"/>
<feOffset dy="6"/>
<feGaussianBlur stdDeviation="3"/>
<feComposite in2="hardAlpha" operator="out"/>
<feColorMatrix type="matrix" values="0 0 0 0 0 0 0 0 0 0 0 0 0 0 0 0 0 0 0.07 0"/>
<feBlend mode="normal" in2="BackgroundImageFix" result="effect1_dropShadow_86_225"/>
<feBlend mode="normal" in="SourceGraphic" in2="effect1_dropShadow_86_225" result="shape"/>
</filter>
</defs>
</svg>
