<svg width="712" height="230" viewBox="0 0 712 230" fill="none" xmlns="http://www.w3.org/2000/svg">
<circle cx="118" cy="115" r="108" fill="#3384FF"/>
<g filter="url(#filter0_d_74_212)">
<path d="M71.0875 114.998C71.0762 123.65 71.8495 132.284 73.3968 140.793C66.0774 137.72 60.0455 133.957 55.7509 129.776C51.0203 125.17 48.475 120.142 48.475 115C48.475 107.176 54.4064 99.5882 64.7704 93.4725L65.3273 93.144L65.4203 92.5041C66.0524 88.1566 66.8629 83.9527 67.8514 79.8919L68.5096 77.1877L65.9784 78.3448C47.6567 86.7203 35.65 99.7517 35.65 115C35.65 133.116 52.5688 148.093 77.0921 155.908C84.9122 180.431 99.8835 197.35 118 197.35C133.227 197.35 146.248 185.375 154.624 167.088L155.789 164.546L153.074 165.215C149.008 166.218 144.803 167.06 140.43 167.696L139.792 167.789L139.463 168.344C133.359 178.645 125.797 184.525 118 184.525C112.856 184.525 107.827 181.98 103.222 177.249C99.0421 172.955 95.2802 166.923 92.2065 159.603C100.716 161.151 109.35 161.924 118.002 161.912C140.892 161.912 161.38 156.872 176.195 148.539C190.979 140.223 200.35 128.466 200.35 115C200.35 96.8836 183.431 81.9073 158.908 74.0919C151.088 49.569 136.117 32.65 118 32.65C104.534 32.65 92.7767 42.0211 84.4607 56.8054C76.1276 71.62 71.0878 92.1081 71.0875 114.998ZM83.9125 115.003V115C83.9125 95.9626 87.9367 78.4571 94.286 65.759C100.684 52.9634 109.199 45.475 118 45.475C123.144 45.475 128.173 48.0204 132.778 52.7509C136.958 57.0454 140.72 63.0773 143.793 70.3967C135.284 68.8492 126.65 68.076 117.998 68.0875C112.582 68.0884 107.17 68.3817 101.786 68.9661L101.044 69.0466L100.718 69.7173C98.9875 73.2718 97.5258 76.9508 96.3452 80.7236L95.6977 82.7925L97.8401 82.4609C104.51 81.4285 111.25 80.9108 118 80.9125L118.003 80.9125C128.26 80.8894 138.481 82.1143 148.441 84.5594C150.886 94.5188 152.111 104.74 152.088 114.997V115C152.088 121.738 151.572 128.466 150.544 135.125L150.214 137.26L152.278 136.62C156.048 135.452 159.726 134.002 163.279 132.284L163.953 131.958L164.034 131.214C164.618 125.83 164.912 120.418 164.912 115.002C164.924 106.35 164.151 97.7158 162.603 89.2065C169.923 92.2804 175.954 96.0434 180.249 100.224C184.98 104.83 187.525 109.858 187.525 115C187.525 123.801 180.037 132.316 167.241 138.714C154.543 145.063 137.037 149.088 118 149.087L117.997 149.088C107.74 149.111 97.5188 147.886 87.5594 145.441C85.1143 135.481 83.8894 125.26 83.9125 115.003ZM118 79.5625C128.639 79.5386 139.239 80.843 149.555 83.4454L118 79.5625Z" fill="white" stroke="white" stroke-width="2.7"/>
<path d="M133.715 104.5C135.792 107.608 136.9 111.262 136.9 115C136.9 120.013 134.909 124.82 131.364 128.364C127.82 131.909 123.013 133.9 118 133.9C114.262 133.9 110.608 132.792 107.5 130.715C104.392 128.638 101.969 125.686 100.539 122.233C99.1082 118.779 98.7339 114.979 99.4632 111.313C100.192 107.647 101.992 104.279 104.636 101.636C107.279 98.9925 110.647 97.1924 114.313 96.4632C117.979 95.7339 121.779 96.1082 125.233 97.5387C128.686 98.9692 131.638 101.392 133.715 104.5Z" fill="white" stroke="white" stroke-width="2.7"/>
</g>
<path d="M314.44 159.68C306.04 159.68 298.667 157.813 292.32 154.08C285.973 150.253 281.027 144.793 277.48 137.7C273.933 130.607 272.16 122.067 272.16 112.08C272.16 102.093 273.933 93.6467 277.48 86.74C281.027 79.74 285.973 74.42 292.32 70.78C298.667 67.14 306.04 65.32 314.44 65.32C322.84 65.32 330.213 67.14 336.56 70.78C342.907 74.42 347.853 79.74 351.4 86.74C354.947 93.6467 356.72 102.093 356.72 112.08C356.72 122.067 354.947 130.607 351.4 137.7C347.853 144.793 342.907 150.253 336.56 154.08C330.213 157.813 322.84 159.68 314.44 159.68ZM314.44 138.96C319.947 138.96 324.24 136.533 327.32 131.68C330.493 126.827 332.08 120.293 332.08 112.08C332.08 103.773 330.493 97.38 327.32 92.9C324.24 88.3267 319.947 86.04 314.44 86.04C309.027 86.04 304.733 88.3267 301.56 92.9C298.387 97.38 296.8 103.773 296.8 112.08C296.8 120.293 298.387 126.827 301.56 131.68C304.733 136.533 309.027 138.96 314.44 138.96ZM387.574 158L364.614 88H388.694L396.254 118.52C397.934 125.52 399.614 132.8 401.294 140.36H401.854C403.534 132.8 405.214 125.52 406.894 118.52L414.454 88H437.414L415.294 158H387.574ZM478.319 159.68C471.505 159.68 465.345 158.233 459.839 155.34C454.425 152.447 450.132 148.293 446.959 142.88C443.785 137.373 442.199 130.747 442.199 123C442.199 115.44 443.785 108.953 446.959 103.54C450.225 98.0333 454.425 93.7867 459.559 90.8C464.692 87.8133 470.105 86.32 475.799 86.32C482.705 86.32 488.399 87.86 492.879 90.94C497.452 93.9267 500.812 97.9867 502.959 103.12C505.199 108.253 506.319 113.947 506.319 120.2C506.319 122.253 506.179 124.26 505.899 126.22C505.712 128.087 505.525 129.44 505.339 130.28H465.439C466.559 134.48 468.565 137.42 471.459 139.1C474.352 140.687 477.759 141.48 481.679 141.48C486.159 141.48 490.919 140.08 495.959 137.28L503.799 151.56C500.065 154.173 495.865 156.18 491.199 157.58C486.532 158.98 482.239 159.68 478.319 159.68ZM465.159 114.6H485.879C485.879 111.893 485.179 109.56 483.779 107.6C482.472 105.547 479.999 104.52 476.359 104.52C473.745 104.52 471.412 105.313 469.359 106.9C467.305 108.487 465.905 111.053 465.159 114.6ZM519.53 158V88H539.13L540.81 96.4H541.37C544.17 93.6933 547.343 91.36 550.89 89.4C554.53 87.3467 558.73 86.32 563.49 86.32C571.237 86.32 576.79 88.9333 580.15 94.16C583.603 99.2933 585.33 106.2 585.33 114.88V158H561.25V117.96C561.25 113.48 560.69 110.493 559.57 109C558.45 107.507 556.677 106.76 554.25 106.76C552.01 106.76 550.143 107.227 548.65 108.16C547.157 109.093 545.477 110.4 543.61 112.08V158H519.53Z" fill="white"/>
<defs>
<filter id="filter0_d_74_212" x="28.3" y="31.3" width="179.4" height="179.4" filterUnits="userSpaceOnUse" color-interpolation-filters="sRGB">
<feFlood flood-opacity="0" result="BackgroundImageFix"/>
<feColorMatrix in="SourceAlpha" type="matrix" values="0 0 0 0 0 0 0 0 0 0 0 0 0 0 0 0 0 0 127 0" result="hardAlpha"/>
<feOffset dy="6"/>
<feGaussianBlur stdDeviation="3"/>
<feComposite in2="hardAlpha" operator="out"/>
<feColorMatrix type="matrix" values="0 0 0 0 0 0 0 0 0 0 0 0 0 0 0 0 0 0 0.07 0"/>
<feBlend mode="normal" in2="BackgroundImageFix" result="effect1_dropShadow_74_212"/>
<feBlend mode="normal" in="SourceGraphic" in2="effect1_dropShadow_74_212" result="shape"/>
</filter>
</defs>
</svg>
