<svg xmlns="http://www.w3.org/2000/svg" width="66" height="66" fill="none"><g stroke="#fff" stroke-linecap="round" stroke-width="2" filter="url(#a)"><path d="M28.25 32.95V21.916a4.75 4.75 0 0 1 9.5 0v1.588m0 9.499v11.08a4.75 4.75 0 0 1-9.5 0v-1.607"/><path d="M33 37.75H21.904A4.744 4.744 0 0 1 17.167 33a4.744 4.744 0 0 1 4.737-4.75h1.587m9.509 0h11.075A4.754 4.754 0 0 1 48.833 33c0 2.623-2.13 4.75-4.758 4.75h-1.523"/></g><defs><filter id="a" width="48" height="48" x="9" y="12" color-interpolation-filters="sRGB" filterUnits="userSpaceOnUse"><feFlood flood-opacity="0" result="BackgroundImageFix"/><feColorMatrix in="SourceAlpha" result="hardAlpha" values="0 0 0 0 0 0 0 0 0 0 0 0 0 0 0 0 0 0 127 0"/><feOffset dy="3"/><feGaussianBlur stdDeviation="2.5"/><feComposite in2="hardAlpha" operator="out"/><feColorMatrix values="0 0 0 0 0.0459471 0 0 0 0 0.381978 0 0 0 0 0.88072 0 0 0 1 0"/><feBlend in2="BackgroundImageFix" result="effect1_dropShadow_2092_18414"/><feBlend in="SourceGraphic" in2="effect1_dropShadow_2092_18414" result="shape"/></filter></defs></svg>